<svg xmlns="http://www.w3.org/2000/svg" viewBox="0 0 337.3 189"><defs><style>.cls-1{fill:#f4f4f4;}</style></defs><g id="Capa_2" data-name="Capa 2"><g id="Capa_1-2" data-name="Capa 1"><path class="cls-1" d="M18.94,178.58c-22.13,0-18.76-50-18.76-52.17s-.26-21.52,0-27.29A72.12,72.12,0,0,1,5.5,74.94C48.34-29.26,331.56-26.31,337.08,93.28c.26,5.77.32,27.36,0,33.13-1.39,24.88,4.45,50.72-18.76,61.13-28.85,12.93-28-64.54-58.28-55.29-23,7-7.6,54.68-31.54,51.79-24.58-3,2.86-61.73-13.81-59.54-17.68,2.32,4.25,33.44-10.93,42.79-20.92,12.89-23.51-46.77-47.5-40.88-19.25,4.73-8.92,41.79-28.74,40.88-19.23-.88-6.72-40-25.95-40.88-21-1-5,44.71-25.94,45.94-20.39,1.21-12-41.7-32.34-40.1C22.52,133.89,39.79,178.55,18.94,178.58Z"/></g></g></svg>