<svg xmlns="http://www.w3.org/2000/svg" viewBox="0 0 337.3 322.89"><defs><style>.cls-1{fill:#f4f4f4;}</style></defs><g id="Capa_2" data-name="Capa 2"><g id="Capa_1-2" data-name="Capa 1"><path class="cls-1" d="M18.94,312.47c-22.13,0-18.76-50-18.76-52.17S-.08,238.78.18,233A72,72,0,0,1,5.5,208.83c42.84-104.2,326.06-101.25,331.58,18.34.26,5.77.32,27.36,0,33.13-1.39,24.88,4.45,50.72-18.76,61.13-28.85,12.93-28-64.54-58.28-55.29-23,7-7.6,54.67-31.54,51.78-24.58-3,2.86-61.72-13.81-59.53-17.68,2.31,4.25,33.44-10.93,42.79-20.92,12.89-23.51-46.78-47.5-40.88-19.25,4.73-8.92,41.79-28.74,40.88-19.23-.88-6.72-40-25.95-40.88-21-1-5,44.7-25.94,45.94-20.39,1.21-12-41.7-32.34-40.1C22.52,267.77,39.79,312.44,18.94,312.47Z"/><path class="cls-1" d="M30.3,0h277a30.06,30.06,0,0,1,30,30.12V227.88a30.06,30.06,0,0,1-30,30.12H30.3a30.06,30.06,0,0,1-30-30.12V30.12A30.06,30.06,0,0,1,30.3,0Z"/></g></g></svg>