<svg xmlns="http://www.w3.org/2000/svg" viewBox="0 0 268 128.67"><defs><style>.cls-1{fill:#f4f4f4;}.cls-2{fill:#242424;}.cls-3{fill:#fff;}.cls-4{fill:#07adef;}.cls-5{fill:#d1d3d4;}</style></defs><g id="Capa_2" data-name="Capa 2"><g id="Capa_1-2" data-name="Capa 1"><path class="cls-1" d="M85.59,124.56c-14.51,3-10.15-15.69-15.61-26.27-7.27-14.08-16.5-21-15.69-37.36C56.42,17.86,142.93-17.14,178,9c16.46,12.25,15.75,26.72,19.34,46.07,2.74,14.74,19.12,35.23,1,39-12.67,2.65-12.4-15.51-25.12-13.9-19.46,2.45,3.71,40.51-15.69,41.94-17.27,1.27-1.91-33.86-19.22-30.92s1.17,32.75-16,37.14C103.79,133,117.52,88.25,99.94,96,87.15,101.56,99.12,121.76,85.59,124.56Z"/><path class="cls-2" d="M32.23,114.2,31,123.42H78L75.21,109Z"/><path class="cls-2" d="M78,123.64H31a.15.15,0,0,1-.09,0,.18.18,0,0,1-.07-.05.41.41,0,0,1,0-.09.14.14,0,0,1,0-.09L32,114.17a.16.16,0,0,1,.06-.12.21.21,0,0,1,.13-.07l43-5.16a.2.2,0,0,1,.15,0,.19.19,0,0,1,.09.14l2.79,14.38a.34.34,0,0,1,0,.1.12.12,0,0,1,0,.08.16.16,0,0,1-.08.06A.18.18,0,0,1,78,123.64Zm-46.77-.44h46.5L75,109.28l-42.6,5.13Z"/><path class="cls-2" d="M53.66,30.77s-3.23-3.48-6.83-4.16-15.24,3.54-16.38,8.12.77,11.17.77,11.17S48.23,30,53.66,30.77Z"/><path class="cls-2" d="M31.22,46.1h0a.31.31,0,0,1-.1-.05A.21.21,0,0,1,31,46c-.08-.27-1.91-6.68-.77-11.27s12.9-9,16.63-8.28,6.83,4.08,7,4.22a.21.21,0,0,1,.05.13.2.2,0,0,1,0,.13.2.2,0,0,1-.09.09.35.35,0,0,1-.14,0c-5.26-.76-22.1,14.89-22.26,15A.17.17,0,0,1,31.22,46.1ZM45.93,26.76c-4.24,0-14.25,3.91-15.26,8-1,3.88.31,9.28.67,10.69,2.21-2,16.15-14.7,21.77-14.94-1-.92-3.54-3.18-6.32-3.7A4.91,4.91,0,0,0,45.93,26.76Z"/><path class="cls-3" d="M48,46.41C57.08,42,63.13,35.6,61.45,32.13S51,29.43,41.88,33.85,26.7,44.65,28.38,48.12,38.82,50.82,48,46.41Z"/><path class="cls-2" d="M33.77,50.51c-2.91,0-4.86-.8-5.59-2.3-.86-1.77.11-4.26,2.73-7a38,38,0,0,1,10.87-7.54,38.2,38.2,0,0,1,12.66-3.83c3.8-.34,6.36.44,7.21,2.21s-.12,4.26-2.73,7a37.85,37.85,0,0,1-10.87,7.54,38.24,38.24,0,0,1-12.66,3.84A15.39,15.39,0,0,1,33.77,50.51ZM56.08,30.18c-.5,0-1,0-1.6.07A37.83,37.83,0,0,0,42,34.05a37.94,37.94,0,0,0-10.74,7.43c-2.53,2.65-3.42,4.94-2.65,6.53s3.17,2.3,6.77,2A37.73,37.73,0,0,0,47.86,46.2,37.77,37.77,0,0,0,58.6,38.75c2.53-2.68,3.43-4.94,2.65-6.53-.64-1.35-2.46-2-5.17-2Z"/><path class="cls-4" d="M38.79,60.19,11.22,63.36,4.56,81,40.2,82.16Z"/><path class="cls-4" d="M67.09,59.8,94.75,72.29,97,91.4,64.36,80.94Z"/><path class="cls-4" d="M47.16,60.73c-2.44.24-11.32,1.06-13.6,2.08-7.73,3.47-1.62,53.19-2.65,53.33l46.27-4.42c-1.81-17.48,1.64-30.31-8.15-50C66.25,56.16,53.28,60.12,47.16,60.73Z"/><path class="cls-2" d="M45.76,63.7s1.46,12.17,8,10.61,3.43-12.5,3.43-12.5Z"/><path class="cls-2" d="M52.65,74.67a4.35,4.35,0,0,1-2.56-.83c-3.6-2.5-4.51-9.8-4.55-10.11a.22.22,0,0,1,.05-.16.19.19,0,0,1,.14-.09l11.45-1.89a.29.29,0,0,1,.16,0,.24.24,0,0,1,.09.13c.08.27,1.86,6.63-.32,10.38a5,5,0,0,1-1.38,1.55,5.15,5.15,0,0,1-1.89.86A5.3,5.3,0,0,1,52.65,74.67ZM46,63.88c.18,1.23,1.23,7.44,4.33,9.6a4,4,0,0,0,1.63.69,4.19,4.19,0,0,0,1.76-.07,4.55,4.55,0,0,0,1.73-.79,4.66,4.66,0,0,0,1.27-1.42c1.88-3.23.61-8.76.33-9.85Z"/><path class="cls-2" d="M71.94,82.24a.23.23,0,0,1-.14,0,.25.25,0,0,1-.08-.12L67,65A.19.19,0,0,1,67,65l0-.09.06-.07.08,0a.27.27,0,0,1,.09,0,.11.11,0,0,1,.08,0,.18.18,0,0,1,.07,0l0,.08,4.7,17a.28.28,0,0,1,0,.09.11.11,0,0,1,0,.08.18.18,0,0,1,0,.07s0,0-.08,0A.09.09,0,0,1,71.94,82.24Z"/><path class="cls-2" d="M33.48,86.36a.25.25,0,0,1-.15,0,.27.27,0,0,1-.07-.13l-2.5-16.12a.14.14,0,0,1,0-.09.2.2,0,0,1,0-.08l.06-.06.08,0a.33.33,0,0,1,.17,0,.29.29,0,0,1,.09.15l2.49,16.13a.14.14,0,0,1,0,.09.21.21,0,0,1,0,.07.13.13,0,0,1-.07.06.11.11,0,0,1-.08,0Z"/><path class="cls-3" d="M65.33,49.6c-.62-1.66-2.1-2.82-3.37-4.07-2.87-2.83-4.13-6.41-6.22-9.73A12.86,12.86,0,0,0,53.3,33a46.13,46.13,0,0,0-8.91,2.55C36,39.26,33.57,43.73,33.5,43.8A81,81,0,0,0,36.59,60c.68,2.05,1.49,4.81,3.83,5.56.66.21-.27-.48.4-.67a41.46,41.46,0,0,0,6.91-2.29c2-1,3.53-2.61,5.48-3.64a9.84,9.84,0,0,1,4-.89,8.12,8.12,0,0,0,.85-.07,9.44,9.44,0,0,0,5.77-2.51A5.79,5.79,0,0,0,65.33,49.6Z"/><path class="cls-2" d="M40.58,65.81a.7.7,0,0,1-.25,0C38,65,37.12,62.41,36.44,60.31l-.08-.24A84.24,84.24,0,0,1,33.27,43.8a.18.18,0,0,1,0-.1.35.35,0,0,1,0-.08c.7-1.11,3.54-5,11-8.29a46.68,46.68,0,0,1,9-2.56.17.17,0,0,1,.1,0,.2.2,0,0,1,.09,0,12.85,12.85,0,0,1,2.48,2.87c.68,1.09,1.28,2.21,1.87,3.3a24.61,24.61,0,0,0,4.32,6.4c.23.23.47.44.71.68a9.42,9.42,0,0,1,2.71,3.47A6,6,0,0,1,64,55.66a9.62,9.62,0,0,1-5.9,2.58l-.86.08H57a8.8,8.8,0,0,0-3.74.83,18.71,18.71,0,0,0-2.53,1.71,19.19,19.19,0,0,1-3,1.93,34,34,0,0,1-5.85,2l-1.09.3a.18.18,0,0,0-.1,0,.41.41,0,0,0,0,.18.36.36,0,0,1,0,.4.23.23,0,0,1-.1.07A.25.25,0,0,1,40.58,65.81Zm-6.86-22a83.2,83.2,0,0,0,3.06,16.09l.08.25c.64,2,1.44,4.38,3.48,5.12a.53.53,0,0,1,0-.35.55.55,0,0,1,.16-.18.58.58,0,0,1,.21-.1l1.1-.3a33.56,33.56,0,0,0,5.77-2,18.38,18.38,0,0,0,2.88-1.9,20.7,20.7,0,0,1,2.59-1.76A9.19,9.19,0,0,1,57,57.85h.2a7.93,7.93,0,0,0,.84-.07,9.32,9.32,0,0,0,5.64-2.45,5.55,5.55,0,0,0,1.44-5.66,9.28,9.28,0,0,0-2.6-3.3c-.24-.23-.48-.44-.71-.69a25.67,25.67,0,0,1-4.42-6.51c-.58-1.08-1.18-2.21-1.85-3.27a12.24,12.24,0,0,0-2.32-2.7,46.79,46.79,0,0,0-8.76,2.52c-7.28,3.21-10.07,7-10.75,8.12Z"/><path class="cls-3" d="M54.31,38.42s3.68,5,4,9.54a6.42,6.42,0,0,1-.73,3.65A6.59,6.59,0,0,1,55,54.27l2.26,7.54s1.2,3.84-3.7,4.66a8.45,8.45,0,0,1-7.75-2.77L41.07,50s4.42-4.68,2.47-9.52C43.54,40.48,50.83,41.65,54.31,38.42Z"/><path class="cls-2" d="M52.08,66.81a8.81,8.81,0,0,1-3.57-.8,8.92,8.92,0,0,1-2.93-2.17.25.25,0,0,1,0-.07l-4.69-13.7a.24.24,0,0,1,0-.12.31.31,0,0,1,0-.1c.05-.05,4.31-4.64,2.43-9.29a.2.2,0,0,1,0-.11.16.16,0,0,1,0-.11.15.15,0,0,1,.09-.06.2.2,0,0,1,.11,0c.07,0,7.22,1.12,10.58-2a.22.22,0,0,1,.17,0l.09,0,.07.06c.15.21,3.73,5.11,4,9.67a6.81,6.81,0,0,1-3.29,6.42l2.21,7.37a4.11,4.11,0,0,1,.11,1.52,3.85,3.85,0,0,1-.49,1.44,4.78,4.78,0,0,1-3.51,2A8.9,8.9,0,0,1,52.08,66.81ZM46,63.58a8.32,8.32,0,0,0,7.51,2.65,4.36,4.36,0,0,0,3.2-1.77A3.59,3.59,0,0,0,57,61.85l-2.27-7.54a.26.26,0,0,1,0-.15.2.2,0,0,1,.11-.11A6.24,6.24,0,0,0,58.07,48c-.26-3.93-3.13-8.26-3.8-9.23-3.15,2.7-8.87,2.21-10.39,2,1.51,4.4-2,8.6-2.56,9.29Z"/><path class="cls-3" d="M43.37,48.24s-3.9-4.53-5.53-.44,3.28,6.56,5.51,5.55"/><path class="cls-2" d="M42.19,53.79a5.43,5.43,0,0,1-3.58-1.49,4,4,0,0,1-1.22-2.14,3.93,3.93,0,0,1,.26-2.44c.44-1.08,1.05-1.69,1.86-1.82,1.86-.31,4,2.1,4.05,2.21a.22.22,0,0,1,0,.31l-.07,0h-.17a.18.18,0,0,1-.07,0s-2-2.32-3.64-2.06c-.64.11-1.15.63-1.52,1.55a3.56,3.56,0,0,0,.85,4.1,4.44,4.44,0,0,0,4.36,1.16.25.25,0,0,1,.17,0,.19.19,0,0,1,.12.11.15.15,0,0,1,0,.09.11.11,0,0,1,0,.08.18.18,0,0,1,0,.07.12.12,0,0,1-.07,0A2.87,2.87,0,0,1,42.19,53.79Z"/><path class="cls-2" d="M51.25,48.75a.25.25,0,0,1-.15-.06.24.24,0,0,1-.07-.16.22.22,0,0,1,.06-.15.25.25,0,0,1,.16-.08,4.29,4.29,0,0,0,2.26-.67v-.06c0-.62-2.07-2.32-3.34-3.25a.22.22,0,0,1-.08-.15.23.23,0,0,1,0-.16.13.13,0,0,1,.07-.06.11.11,0,0,1,.08,0h.08a.2.2,0,0,1,.08,0c.58.42,3.45,2.57,3.54,3.58a.42.42,0,0,1,0,.22.55.55,0,0,1-.12.19,4.76,4.76,0,0,1-2.55.8Z"/><path class="cls-2" d="M55,54.27a23.15,23.15,0,0,1-6.36,1.81s4.31,5.18,8.12,4Z"/><path class="cls-2" d="M55.53,60.48c-3.54,0-6.94-4.06-7.11-4.25a.54.54,0,0,1-.05-.11.22.22,0,0,1,0-.12.39.39,0,0,1,.08-.1l.12,0a22,22,0,0,0,6.28-1.8h.18l.07.06a.22.22,0,0,1,.05.08L56.94,60a.25.25,0,0,1,0,.17.24.24,0,0,1-.13.11A4.19,4.19,0,0,1,55.53,60.48Zm-6.47-4.21c1,1.08,4.35,4.4,7.38,3.66l-1.62-5.36A23.49,23.49,0,0,1,49.06,56.27Z"/><path class="cls-2" d="M47.72,46.22c.32-.11.41-.66.21-1.22s-.63-.93-1-.81-.41.66-.21,1.22S47.4,46.34,47.72,46.22Z"/><path class="cls-3" d="M35.75,57.27c1.17,4.48,3.48,12.67,9.78,8.38a6.21,6.21,0,0,0,2.56-3.87c.56-2.84-4.2-5.09-6.42-6.09"/><path class="cls-2" d="M42.24,67.07a3.81,3.81,0,0,1-1.33-.24c-3.21-1.2-4.61-6.6-5.37-9.5a.29.29,0,0,1,0-.18.21.21,0,0,1,.14-.1.2.2,0,0,1,.17,0,.21.21,0,0,1,.1.14c.68,2.62,2.11,8.08,5.1,9.2,1.26.47,2.72.15,4.35-1a6,6,0,0,0,2.46-3.72c.55-2.78-4.6-5.09-6.29-5.85a.18.18,0,0,1-.12-.12.2.2,0,0,1,0-.17.15.15,0,0,1,0-.07l.07-.05h.08l.09,0c3.09,1.38,7.1,3.53,6.54,6.34a6.41,6.41,0,0,1-2.65,4A6.18,6.18,0,0,1,42.24,67.07Z"/><path class="cls-2" d="M51.49,53.14a5.33,5.33,0,0,1-1-.09c-3.22-.59-3-3.13-3-3.15a.21.21,0,0,1,.07-.15.24.24,0,0,1,.14,0h7.1l.07,0a.23.23,0,0,1,.06.16,3.31,3.31,0,0,1-.33,1.35,3.26,3.26,0,0,1-.85,1.1A3.5,3.5,0,0,1,51.49,53.14Zm-3.54-3c0,.55.32,2,2.66,2.48a3.5,3.5,0,0,0,1.51,0,3.54,3.54,0,0,0,1.39-.61,3,3,0,0,0,1-1.89Z"/><path class="cls-2" d="M52.17,44.13H52.1A.24.24,0,0,1,52,44a.25.25,0,0,1,0-.17,2.64,2.64,0,0,1,1.25-1.44,2,2,0,0,1,.81-.14,1.86,1.86,0,0,1,.79.21.23.23,0,0,1,.1.12.22.22,0,0,1,0,.16.2.2,0,0,1-.11.11.22.22,0,0,1-.16,0,1.64,1.64,0,0,0-.61-.17,1.5,1.5,0,0,0-.63.11,2.14,2.14,0,0,0-1,1.18.2.2,0,0,1-.09.09A.17.17,0,0,1,52.17,44.13Z"/><path class="cls-3" d="M9.46,80.75c-5,3.2-11.3-2.93-8.59-10.9S22.53,42.78,22.53,42.78s-1.59-4.51-.16-6.19,4.2-.77,4.2-.77,1.64-7.27,3.1-6.74-1,7.51-1,7.51,3.88-7.69,4.86-6.21-2.89,7.19-2.89,7.19,2.34-.3.91,3a10.79,10.79,0,0,1-4.35,4.86S14.47,77.55,9.46,80.75Z"/><path class="cls-2" d="M6.59,81.84a5.63,5.63,0,0,1-3.53-1.29C.68,78.68-1,74.63.66,69.76c2.62-7.71,20-25.42,21.63-27.06-.26-.78-1.45-4.66-.08-6.29s3.47-1.08,4.19-.88c.29-1.22,1.46-5.92,2.74-6.63a.76.76,0,0,1,.59-.06c1.09.4.49,3.36-.13,5.57,1.09-1.93,2.65-4.42,3.6-4.47a.57.57,0,0,1,.31.07.6.6,0,0,1,.23.22c.91,1.39-1.8,5.77-2.65,7.11a1.35,1.35,0,0,1,.88.49c.44.57.36,1.52-.21,2.81a10.86,10.86,0,0,1-4.42,5c-1.05,2.93-13,32.25-17.78,35.31A5.51,5.51,0,0,1,6.59,81.84ZM24.88,35.78a3.06,3.06,0,0,0-1.27.21,3,3,0,0,0-1.06.73c-1.33,1.57.18,5.94.2,6a.25.25,0,0,1,0,.12.24.24,0,0,1-.06.11c-.19.19-19,19.17-21.62,27-1.58,4.65,0,8.51,2.26,10.29a5,5,0,0,0,2.94,1.17,5,5,0,0,0,3.06-.82C14.2,77.47,26.9,45.69,27,45.38a.23.23,0,0,1,.1-.12,10.71,10.71,0,0,0,4.25-4.76c.49-1.13.58-2,.26-2.37a1,1,0,0,0-.43-.28,1.06,1.06,0,0,0-.5-.06.17.17,0,0,1-.12,0,.39.39,0,0,1-.1-.08.27.27,0,0,1,0-.12.24.24,0,0,1,0-.12c1.06-1.56,3.62-5.84,2.89-7-.06-.09-.11-.1-.14-.09-.89.05-3.12,3.88-4.33,6.28a.25.25,0,0,1-.12.11.2.2,0,0,1-.17,0l-.07,0a.16.16,0,0,1,0-.07.11.11,0,0,1,0-.08.22.22,0,0,1,0-.08c1.61-4.68,1.61-7.07,1.09-7.24h-.12a.22.22,0,0,0-.11.05c-1,.55-2.21,4.91-2.57,6.55,0,0,0,.05,0,.08a.22.22,0,0,1-.07.06l-.08,0-.09,0A5.93,5.93,0,0,0,24.88,35.78Z"/><path class="cls-3" d="M7.76,21.39l10.35,90.24,69.11-7.93L76.87,13.46ZM78,74.21,20.41,80.82,14.28,27.33,71.86,20.7Z"/><path class="cls-2" d="M18.11,111.85a.19.19,0,0,1-.13,0,.17.17,0,0,1-.06-.06.32.32,0,0,1,0-.09L7.54,21.41v-.08a.2.2,0,0,1,0-.08.2.2,0,0,1,.07-.06l.08,0,69.11-7.93a.34.34,0,0,1,.17,0,.18.18,0,0,1,0,.07s0,.05,0,.08l10.35,90.25a.24.24,0,0,1,0,.16.28.28,0,0,1-.15.08l-69.12,7.93ZM8,21.58l10.3,89.81L87,103.5,76.68,13.7ZM20.42,81.05a.34.34,0,0,1-.15-.06.29.29,0,0,1-.08-.14L14.06,27.37a.22.22,0,0,1,0-.17.25.25,0,0,1,.14-.08l57.59-6.63h.09l.07,0a.23.23,0,0,1,.07.07.16.16,0,0,1,0,.09l6.14,53.49a.25.25,0,0,1,0,.16.28.28,0,0,1-.15.08L20.44,81Zm-5.9-53.49,6.09,53L77.76,74,71.66,21Z"/><path class="cls-4" d="M26.49,84.86l.09-.18a2.25,2.25,0,0,1,.85-.88,2,2,0,0,1,.92-.26A1.92,1.92,0,0,1,30.3,85a3.48,3.48,0,0,1,.09.79,3.19,3.19,0,0,1-.08.75,2.93,2.93,0,0,1-.5,1.09,10.09,10.09,0,0,1-.78,1l-1.44,1.59-.41.48,0,0L27,90.54c-.57-.44-1.16-.84-1.76-1.24-.39-.26-.77-.52-1.14-.82a3.72,3.72,0,0,1-.72-.71,2.61,2.61,0,0,1-.47-1,4.12,4.12,0,0,1-.14-.78A1.93,1.93,0,0,1,23,84.92a1.9,1.9,0,0,1,.83-.78A2,2,0,0,1,25,84a1.92,1.92,0,0,1,1,.45,2.09,2.09,0,0,1,.42.42A.14.14,0,0,1,26.49,84.86Z"/><path class="cls-5" d="M40.43,89.31h-.1L39,88.68a4.44,4.44,0,0,1-4.28-.24,3.21,3.21,0,0,1-1-1,3.11,3.11,0,0,1-.45-1.29,3,3,0,0,1,.88-2.51A4.37,4.37,0,0,1,39.61,83,3.16,3.16,0,0,1,41,85.28a3.09,3.09,0,0,1-.57,2.14l.18,1.64a.25.25,0,0,1,0,.12.18.18,0,0,1-.08.09A.17.17,0,0,1,40.43,89.31ZM39,88.19l.09,0,1.11.51L40,87.4a.23.23,0,0,1,0-.16,2.65,2.65,0,0,0,.54-1.9,2.7,2.7,0,0,0-.4-1.1,2.53,2.53,0,0,0-.83-.83,3.91,3.91,0,0,0-4.9.56,2.62,2.62,0,0,0-.63,1,2.62,2.62,0,0,0,.26,2.27,2.66,2.66,0,0,0,.84.83,3.76,3.76,0,0,0,2.55.58,3.93,3.93,0,0,0,1.38-.41A.19.19,0,0,1,39,88.19Z"/><path class="cls-5" d="M47.65,88.12a.18.18,0,0,1-.12-.05.21.21,0,0,1-.08-.11l-.82-2.69L43.37,84a.22.22,0,0,1-.1-.09.17.17,0,0,1,0-.12.22.22,0,0,1,.14-.21l6.78-2.43h.13a.24.24,0,0,1,.11.06.16.16,0,0,1,0,.11.17.17,0,0,1,0,.12L47.84,88a.36.36,0,0,1-.07.1Zm-3.53-4.29,2.78,1.06A.16.16,0,0,1,47,85,.22.22,0,0,1,47,85l.66,2.21,2.18-5.45Z"/><path class="cls-5" d="M46.8,85.32a.22.22,0,0,1-.15-.06.25.25,0,0,1,0-.07.15.15,0,0,1,0-.09.11.11,0,0,1,0-.08.2.2,0,0,1,0-.08l3.45-3.69a.21.21,0,0,1,.15-.07.23.23,0,0,1,.16.06.23.23,0,0,1,.07.15.23.23,0,0,1-.06.16L47,85.24a.18.18,0,0,1-.07.05A.12.12,0,0,1,46.8,85.32Z"/><path class="cls-5" d="M23.92,96a.39.39,0,0,1-.15-.06.27.27,0,0,1-.07-.14.18.18,0,0,1,.05-.16.22.22,0,0,1,.14-.09l55.82-6.4a.26.26,0,0,1,.17,0,.28.28,0,0,1,.08.15.22.22,0,0,1,0,.16.19.19,0,0,1-.15.08L23.94,96Z"/><path class="cls-5" d="M24.5,101.06a.27.27,0,0,1-.15,0,.37.37,0,0,1-.07-.14.28.28,0,0,1,0-.09.16.16,0,0,1,0-.07.17.17,0,0,1,.06-.06.32.32,0,0,1,.09,0L72,95.18a.22.22,0,0,1,.16,0,.19.19,0,0,1,.08.15.25.25,0,0,1,0,.17.28.28,0,0,1-.15.08l-47.48,5.44Z"/><path class="cls-3" d="M89.54,86.35c-4.62-11.16-6.63-26.66-6.63-26.66S75,58.11,74.45,53,81,49.76,81,49.76a20.75,20.75,0,0,0-.54-4.71c1,.17,16.57,20.8,19.16,37.57C100.83,90.35,94.16,97.52,89.54,86.35Z"/><path class="cls-2" d="M95,92.34c-2.07,0-4.11-2.09-5.68-5.9C85,76,82.93,61.53,82.71,59.87a17.68,17.68,0,0,1-3.92-1.42c-2.74-1.38-4.32-3.27-4.57-5.45a3.18,3.18,0,0,1,.92-2.91c1.6-1.38,4.71-.82,5.67-.61a20.28,20.28,0,0,0-.55-4.38V45a.31.31,0,0,1,0-.1.21.21,0,0,1,.1-.06h.11c1.07.18,16.71,20.78,19.34,37.75.68,4.42-1.14,8.84-4,9.64A3.13,3.13,0,0,1,95,92.34Zm-5.28-6.07c1.7,4.11,3.9,6.12,6,5.52,2.6-.72,4.3-5,3.66-9.15C97,67.09,83.55,48.5,80.86,45.63a21.25,21.25,0,0,1,.4,4.13.3.3,0,0,1,0,.1l-.06.08-.1,0H81s-3.86-1-5.55.44a2.7,2.7,0,0,0-.76,2.52c.56,4.91,8.2,6.5,8.28,6.52a.24.24,0,0,1,.11.06.18.18,0,0,1,.06.13c0,.15,2.06,15.6,6.63,26.61Z"/><path class="cls-2" d="M25.25,42.13h0a.24.24,0,0,1-.15-.09.25.25,0,0,1,0-.17,2.39,2.39,0,0,1,.33-1,2.22,2.22,0,0,1,.7-.73,3,3,0,0,1,1.32-.44,7.66,7.66,0,0,1-1.56-1.09c-.31-.28-.42-.54-.31-.78.38-.89,4.07-.62,5.2-.52l.08,0,.07,0a.59.59,0,0,1,0,.08s0,.06,0,.08a.15.15,0,0,1,0,.09l-.05.07-.08,0h-.08c-2.43-.21-4.61-.1-4.76.26,0,0,0,.1.2.27a6.36,6.36,0,0,0,2.58,1.45,3.17,3.17,0,0,1,.48.1.18.18,0,0,1,.13.09.29.29,0,0,1,0,.16.25.25,0,0,1-.24.18,4.37,4.37,0,0,1-.5-.09,3.55,3.55,0,0,0-2.31.34,2.08,2.08,0,0,0-.57.61,2,2,0,0,0-.26.78.23.23,0,0,1-.07.14A.24.24,0,0,1,25.25,42.13Z"/><path class="cls-5" d="M67.24,33.11a.25.25,0,0,1-.15,0L67,33c-.44-.44-.88-.84-1.28-1.23l0-.05a9.53,9.53,0,0,1-.79-.77,3.41,3.41,0,0,1-.54-.71,2.4,2.4,0,0,1-.29-.93,2.81,2.81,0,0,1,0-.71,1.77,1.77,0,0,1,.38-1,1.8,1.8,0,0,1,.89-.59,1.78,1.78,0,0,1,1.07,0,1.82,1.82,0,0,1,.9.56,1.46,1.46,0,0,1,.16.19,2,2,0,0,1,.81-.58,1.83,1.83,0,0,1,2.5,1.5,2.81,2.81,0,0,1,0,.71,2.57,2.57,0,0,1-.17.66,2.94,2.94,0,0,1-.59.89,8.65,8.65,0,0,1-.78.7l-1.38,1.13-.27.23-.12.11a.21.21,0,0,1-.1.06A.22.22,0,0,1,67.24,33.11ZM65.91,27.3a1.93,1.93,0,0,0-.47.08,1.33,1.33,0,0,0-.66.46,1.23,1.23,0,0,0-.29.76,3.11,3.11,0,0,0,0,.61,2.1,2.1,0,0,0,.24.77,2.92,2.92,0,0,0,.48.63c.23.26.5.51.76.75l.06.05c.4.38.82.77,1.24,1.19l.26-.23,1.38-1.14a7.75,7.75,0,0,0,.74-.66,2.42,2.42,0,0,0,.51-.76,3.53,3.53,0,0,0,.14-.56,3,3,0,0,0,0-.6,1.36,1.36,0,0,0-.35-.78,1.34,1.34,0,0,0-.88-.44,1.42,1.42,0,0,0-.68.08,1.62,1.62,0,0,0-.73.56l-.07.09,0,0a.18.18,0,0,1-.08.07.23.23,0,0,1-.11,0l-.1,0a.3.3,0,0,1-.08-.08l.19-.12-.19.12A2.16,2.16,0,0,0,67,27.8a1.68,1.68,0,0,0-.48-.36,1.54,1.54,0,0,0-.59-.14Zm1.33.64.18.12Z"/><path class="cls-5" d="M64.71,43h0a.73.73,0,0,1-.35-.09.67.67,0,0,1-.26-.24.2.2,0,0,1,0-.16.28.28,0,0,1,.08-.15.25.25,0,0,1,.17,0,.22.22,0,0,1,.14.08.25.25,0,0,0,.12.11.28.28,0,0,0,.15,0h0a1.52,1.52,0,0,0,1-.57,11.17,11.17,0,0,0,2.61-7.89s0-.06,0-.09l0-.07a.18.18,0,0,1,.07,0s0,0,.08,0a.23.23,0,0,1,.16.06.28.28,0,0,1,.08.15A11.72,11.72,0,0,1,66,42.3,2,2,0,0,1,64.71,43Z"/><path class="cls-3" d="M168.23,47.06a2.5,2.5,0,0,0,.14,1.35c.59,1.87,5,9.05,4.86,3.45C173.19,50.2,168.82,44.6,168.23,47.06Z"/><path class="cls-2" d="M172.51,54.16c-1.47,0-3.94-4.46-4.32-5.7A2.8,2.8,0,0,1,168,47c.18-.73.65-.8.92-.76,1.51.16,4.45,4.12,4.49,5.62s-.24,2.19-.83,2.29Zm-4.08-7.06a2.3,2.3,0,0,0,.14,1.24c.49,1.59,3,5.55,4,5.4.16,0,.51-.26.48-1.87,0-1.26-2.85-5.09-4.11-5.2-.17,0-.37,0-.48.45Z"/><path class="cls-4" d="M217.09,64.08l-28.71,5.25s-9.31-13.41-9.6-13.16c-2.85,2.4-6.53,5.38-6.53,5.38S175,79.59,182,83.2s29.14-5.26,29.14-5.26Z"/><path class="cls-4" d="M240.59,65.13l15.1,8.9,4.79-24.51,7.42,2.8s1.43,44.11-6.67,43.05-27.54-12.65-27.54-12.65Z"/><path class="cls-4" d="M217.09,64.08s-9.8-.52-16.8,17.37-11.83,29.41-11.83,29.41l44.39,4.4s5.35-20,7.67-34.83c1.17-7.52,1.56-13.71.08-15.32C236.19,60.36,217.09,64.08,217.09,64.08Z"/><path class="cls-2" d="M234.05,110.78H234a.24.24,0,0,1-.12-.1.23.23,0,0,1,0-.16L244,75.93a.22.22,0,0,1,.26-.14l.07,0,.06.06a.24.24,0,0,1,0,.08.22.22,0,0,1,0,.08l-10.16,34.59a.25.25,0,0,1-.08.1A.28.28,0,0,1,234.05,110.78Z"/><path class="cls-2" d="M189.61,108.24a.09.09,0,0,1-.07,0,.2.2,0,0,1-.11-.11.18.18,0,0,1,0-.16l14.2-36.19a.18.18,0,0,1,0-.07.15.15,0,0,1,.06,0h.16a.2.2,0,0,1,.11.11.18.18,0,0,1,0,.16l-14.2,36.19a.24.24,0,0,1-.08.09A.27.27,0,0,1,189.61,108.24Z"/><path class="cls-4" d="M211.44,61.37v-.7a6.67,6.67,0,0,1,.35-2.47,5.68,5.68,0,0,1,1.92-2.26A20.93,20.93,0,0,1,225,51.73a26.82,26.82,0,0,1,12,2,16.05,16.05,0,0,1,4.8,2.79,11.19,11.19,0,0,1,3.5,9.51,17.79,17.79,0,0,1-.68,4.26c-.86,1.95-3.39,1.88-5.09,2.4s-3.05,1.74-4.63,2.53c-1.43.71-3.37.55-4.94.67-3.84.3-8,.16-11.19-2-2.17-1.49-2.54-4.27-3.76-6.42-.68-1.2-1.6-1.55-2.49-2.43A5.13,5.13,0,0,1,211.44,61.37Z"/><path class="cls-2" d="M220.84,76.51a4.29,4.29,0,0,0,1,1.77,4.37,4.37,0,0,0,1.67,1.14,4.73,4.73,0,0,0,1.91.12,4.86,4.86,0,0,0,1.8-.64A9.81,9.81,0,0,0,230,76.32a21.11,21.11,0,0,0,2.77-4.51,8.65,8.65,0,0,0,.91-3.29,4,4,0,0,0-.25-1.67,3.88,3.88,0,0,0-.95-1.39c-2.26-1.95-8.35-1.91-10.44.59S220,73.9,220.84,76.51Z"/><path class="cls-2" d="M224.67,79.81a4,4,0,0,1-1.24-.2,4.49,4.49,0,0,1-1.76-1.18,4.59,4.59,0,0,1-1-1.86c-.84-2.65-.78-8.25,1.22-10.65a7,7,0,0,1,4.8-2c2.4-.2,4.73.35,5.94,1.39a4.05,4.05,0,0,1,1,1.46,4,4,0,0,1,.28,1.74,9,9,0,0,1-.93,3.38,22.35,22.35,0,0,1-2.8,4.55,9.87,9.87,0,0,1-2.87,2.63A5.5,5.5,0,0,1,224.67,79.81ZM221,76.45a4.08,4.08,0,0,0,2.51,2.77,4.49,4.49,0,0,0,1.82.11,4.54,4.54,0,0,0,1.72-.61,9.39,9.39,0,0,0,2.76-2.53,21.73,21.73,0,0,0,2.74-4.46,8.65,8.65,0,0,0,.89-3.22,3.5,3.5,0,0,0-.24-1.57,3.71,3.71,0,0,0-.89-1.32c-1.14-1-3.35-1.49-5.64-1.3a6.62,6.62,0,0,0-4.52,1.87C220.27,68.48,220.23,73.88,221,76.45Z"/><path class="cls-3" d="M240.13,57.18a49.75,49.75,0,0,0,3.14-5.52,8.9,8.9,0,0,0,.66-6.06,3.46,3.46,0,0,0-1.36-2,2.12,2.12,0,0,0-1.2-.36,2.21,2.21,0,0,0-1.19.38,5.16,5.16,0,0,0-1.65-2.28,12.34,12.34,0,0,0-6.08-3,9.67,9.67,0,0,0-6.8,1.33c-.83.53-1.56,1.2-2.43,1.65a5.21,5.21,0,0,1-4.74,0,10.79,10.79,0,0,0,2.31,8.51A21.12,21.12,0,0,0,228,55.36a13.84,13.84,0,0,0,4.57,1.6,6.53,6.53,0,0,0,4.76-1.07"/><path class="cls-2" d="M240.13,57.38a.19.19,0,0,1-.1,0,.1.1,0,0,1-.06-.05.25.25,0,0,1,0-.07.27.27,0,0,1,0-.09.11.11,0,0,1,0-.07c.28-.48.57-1,.87-1.43a30.85,30.85,0,0,0,2.25-4.06,8.87,8.87,0,0,0,.66-5.92,3.33,3.33,0,0,0-1.28-1.87,1.93,1.93,0,0,0-1.07-.33,2,2,0,0,0-1.08.33.25.25,0,0,1-.09,0h-.1l-.08,0a.13.13,0,0,1,0-.09,5,5,0,0,0-1.6-2.18,12,12,0,0,0-6-3,9.5,9.5,0,0,0-6.62,1.31c-.31.21-.62.43-.91.65a10.27,10.27,0,0,1-1.54,1,5.51,5.51,0,0,1-4.67.12A10.6,10.6,0,0,0,221,49.73a20.48,20.48,0,0,0,7.09,5.47,14,14,0,0,0,4.51,1.6,6.3,6.3,0,0,0,4.6-1,.25.25,0,0,1,.15,0,.2.2,0,0,1,.12.08.19.19,0,0,1,0,.14.27.27,0,0,1-.07.14,6.81,6.81,0,0,1-4.9,1.11,14.44,14.44,0,0,1-4.64-1.64,20.82,20.82,0,0,1-7.24-5.6,10.92,10.92,0,0,1-2.35-8.68.12.12,0,0,1,0-.08.13.13,0,0,1,.07-.06l.09,0a.17.17,0,0,1,.1,0,5,5,0,0,0,4.54,0,11.15,11.15,0,0,0,1.48-1c.3-.23.61-.46.94-.67a9.84,9.84,0,0,1,6.92-1.35,12.42,12.42,0,0,1,6.19,3.06,5.69,5.69,0,0,1,1.62,2.11,2.43,2.43,0,0,1,1.21-.26,2.36,2.36,0,0,1,1.19.38,3.67,3.67,0,0,1,1.45,2.1,9.34,9.34,0,0,1-.67,6.2,31.75,31.75,0,0,1-2.28,4.12c-.3.47-.59.94-.88,1.42a.2.2,0,0,1-.08.08A.2.2,0,0,1,240.13,57.38Z"/><path class="cls-3" d="M224.52,62.55l-2.68,5.16s-2.05,6.16,2.95,6.4,8.1-4.48,8.1-4.48L238.07,58s-2.8-2.78.71-9.83A24.52,24.52,0,0,1,226.2,46.4s-4.83,7.37-5.48,11.06S224.52,62.55,224.52,62.55Z"/><path class="cls-2" d="M225.12,74.3h-.34a3.5,3.5,0,0,1-2.89-1.39c-1.33-1.93-.29-5.13-.24-5.26l2.58-5c-.93-.36-4.3-1.91-3.71-5.24.65-3.69,5.3-10.83,5.5-11.13a.2.2,0,0,1,.12-.08.17.17,0,0,1,.14,0A24.28,24.28,0,0,0,238.74,48h.11a.22.22,0,0,1,.09.07.23.23,0,0,1,0,.11.2.2,0,0,1,0,.11c-1.78,3.57-1.89,6-1.66,7.4a4.17,4.17,0,0,0,.93,2.2.2.2,0,0,1,.06.11.17.17,0,0,1,0,.12l-5.17,11.62C233,69.79,230,74.3,225.12,74.3Zm1.16-27.64c-.68,1.05-4.77,7.51-5.35,10.83s3.59,4.85,3.65,4.86l.08,0a.18.18,0,0,1,.05.07.29.29,0,0,1,0,.09.19.19,0,0,1,0,.08L222,67.8s-1,3.11.21,4.87a3.05,3.05,0,0,0,2.57,1.2c4.84.22,7.89-4.31,7.92-4.36L237.83,58c-.48-.58-2.37-3.43.6-9.6A25.11,25.11,0,0,1,226.28,46.66Z"/><path class="cls-3" d="M229.77,52.22s-3.54,3.38-3.07,4.16S229,57,229,57"/><path class="cls-2" d="M228.7,57.25c-.6,0-1.77-.09-2.17-.77-.51-.85,2.24-3.59,3.1-4.39l.06-.05h.16l.06.05a.15.15,0,0,1,.05.06s0,.05,0,.08,0,.05,0,.07a.18.18,0,0,1-.05.07c-1.65,1.58-3.26,3.53-3,3.92.34.55,1.66.59,2.14.55a.2.2,0,0,1,.14.06.17.17,0,0,1,.07.13.22.22,0,0,1,0,.08.25.25,0,0,1,0,.07.09.09,0,0,1-.06,0,.1.1,0,0,1-.07,0Z"/><path class="cls-2" d="M234.33,52c.11-.58,0-1.1-.26-1.15s-.55.39-.67,1,0,1.1.26,1.15S234.21,52.62,234.33,52Z"/><path class="cls-2" d="M227,51.11c.11-.58,0-1.1-.27-1.14s-.55.39-.65,1,0,1.1.26,1.14S226.93,51.69,227,51.11Z"/><path class="cls-3" d="M235.71,55.3A7.09,7.09,0,0,1,237.9,54a2.39,2.39,0,0,1,1.37-.19,1.91,1.91,0,0,1,.92.58,3.69,3.69,0,0,1,.82,1.37,3.89,3.89,0,0,1,.15,1.59,3.15,3.15,0,0,1-.53,1.42,3.79,3.79,0,0,1-2,1.32,11.45,11.45,0,0,1-2.4.32"/><path class="cls-2" d="M236.19,60.56a.26.26,0,0,1-.11-.07.28.28,0,0,1,0-.13.25.25,0,0,1,0-.12.28.28,0,0,1,.11-.08,10.48,10.48,0,0,0,2.37-.31,3.52,3.52,0,0,0,1.91-1.24,2.86,2.86,0,0,0,.49-1.33,3.33,3.33,0,0,0-.14-1.5,3.47,3.47,0,0,0-.77-1.29,1.66,1.66,0,0,0-.82-.52,2.21,2.21,0,0,0-1.24.18,6.86,6.86,0,0,0-2.14,1.31.23.23,0,0,1-.14,0,.21.21,0,0,1-.13-.07.2.2,0,0,1-.06-.14.24.24,0,0,1,0-.14,7.74,7.74,0,0,1,2.26-1.39,2.52,2.52,0,0,1,1.48-.19,2,2,0,0,1,1,.63,3.88,3.88,0,0,1,.86,1.45,3.83,3.83,0,0,1,.16,1.68,3.26,3.26,0,0,1-.56,1.51,3.93,3.93,0,0,1-2.13,1.4,11.38,11.38,0,0,1-2.46.33Z"/><path class="cls-2" d="M224.52,62.55s4.26,1.37,7.06.54c0,0-4.52,4.75-9.74,4.62Z"/><path class="cls-2" d="M222.07,67.92h-.24a.19.19,0,0,1-.1,0,.23.23,0,0,1-.07-.07.36.36,0,0,1,0-.1.3.3,0,0,1,0-.1l2.68-5.16a.24.24,0,0,1,.1-.1.26.26,0,0,1,.15,0s4.23,1.35,6.94.55a.19.19,0,0,1,.13,0,.22.22,0,0,1,.1.09.15.15,0,0,1,0,.13.18.18,0,0,1,0,.12C231.55,63.43,227.22,67.92,222.07,67.92Zm2.55-5.12-2.44,4.7c3.92,0,7.43-2.87,8.72-4A16.26,16.26,0,0,1,224.62,62.8Z"/><path class="cls-2" d="M217.7,74.54a.2.2,0,0,1-.13,0,.21.21,0,0,1-.07-.12,23.24,23.24,0,0,0-5.4-9.92l0-.06a.25.25,0,0,1,0-.08.19.19,0,0,1,0-.08l0-.07a.2.2,0,0,1,.15-.06.2.2,0,0,1,.14.06,23.79,23.79,0,0,1,5.51,10.12v.08s0,0,0,.08,0,0-.06,0a.09.09,0,0,1-.07,0Z"/><path class="cls-2" d="M231.45,78.14a.18.18,0,0,1-.13,0l0-.06a.13.13,0,0,1,0-.08.19.19,0,0,1,0-.08.16.16,0,0,1,0-.07,27.92,27.92,0,0,1,12.37-7.89.22.22,0,0,1,.16,0,.23.23,0,0,1,.1.12.25.25,0,0,1,0,.08.19.19,0,0,1,0,.08s0,.05-.06.06l-.07,0a27.63,27.63,0,0,0-12.17,7.76l-.07.05A.15.15,0,0,1,231.45,78.14Z"/><path class="cls-2" d="M228.12,53h-.19l-4.51-.72a1.17,1.17,0,0,1-.44-.16,1.15,1.15,0,0,1-.34-.32,1.09,1.09,0,0,1-.2-.42,1.25,1.25,0,0,1,0-.47l.31-1.93a1.2,1.2,0,0,1,.48-.78,1.18,1.18,0,0,1,.89-.21l4.51.71a1.23,1.23,0,0,1,.44.16,1.15,1.15,0,0,1,.34.32,1.09,1.09,0,0,1,.2.42,1.25,1.25,0,0,1,0,.47l-.32,1.92a1.14,1.14,0,0,1-.4.72,1.15,1.15,0,0,1-.77.29Zm-.13-.4a.87.87,0,0,0,.32,0,.82.82,0,0,0,.28-.14.74.74,0,0,0,.2-.23.91.91,0,0,0,.11-.3l.3-1.93a.75.75,0,0,0-.15-.58.76.76,0,0,0-.51-.32l-4.5-.71a.81.81,0,0,0-.31,0,.82.82,0,0,0-.28.14.74.74,0,0,0-.21.22.72.72,0,0,0-.1.29l-.31,1.93a.77.77,0,0,0,.15.58.79.79,0,0,0,.51.32Z"/><path class="cls-2" d="M236.15,54.23H236l-4.5-.72a1.2,1.2,0,0,1-.79-.48,1.23,1.23,0,0,1-.21-.89l.3-1.93a1.42,1.42,0,0,1,.16-.45,1.19,1.19,0,0,1,.32-.35,1.3,1.3,0,0,1,.43-.2,1.47,1.47,0,0,1,.47,0l4.51.72a1.2,1.2,0,0,1,.78.48,1.23,1.23,0,0,1,.21.89l-.3,1.93a1.42,1.42,0,0,1-.16.45,1.07,1.07,0,0,1-.32.35A1.22,1.22,0,0,1,236.15,54.23ZM236,53.8a.82.82,0,0,0,.59-.14.78.78,0,0,0,.32-.51l.3-1.93a.78.78,0,0,0-.14-.58.8.8,0,0,0-.51-.32l-4.51-.72a.81.81,0,0,0-.58.15.79.79,0,0,0-.32.51l-.31,1.93a.81.81,0,0,0,.15.58.79.79,0,0,0,.51.32Z"/><path class="cls-2" d="M231,50.43h-.08l-.06-.05c-.73-.68-1.28-.25-1.3-.23l-.07,0h-.08l-.08,0-.06,0a.21.21,0,0,1,0-.07.25.25,0,0,1,0-.08.19.19,0,0,1,0-.08s0-.05.05-.06a1.38,1.38,0,0,1,1.84.25.24.24,0,0,1,.06.11.17.17,0,0,1,0,.12.19.19,0,0,1-.08.1A.2.2,0,0,1,231,50.43Z"/><path class="cls-2" d="M228.15,59.2a12,12,0,0,1-3.14-.54l-.44-.11a.2.2,0,0,1-.11,0,.18.18,0,0,1-.09-.08.16.16,0,0,1,0-.15.22.22,0,0,1,.08-.13c.11-.07.23,0,.71.1,1.59.45,5.78,1.66,7.09-2.4a.16.16,0,0,1,0-.07l.06-.05.08,0h.07l.07,0a.1.1,0,0,1,.05.06.14.14,0,0,1,0,.07.22.22,0,0,1,0,.08A4.28,4.28,0,0,1,228.15,59.2Z"/><path class="cls-3" d="M168.91,19.6l7,85.68,88.57-7.16L257.5,12.43Zm87.39,62-75.1,6.08-3.74-46.31,75.1-6.08Z"/><path class="cls-2" d="M175.86,105.48a.19.19,0,0,1-.15,0,.27.27,0,0,1-.07-.14l-6.91-85.68a.11.11,0,0,1,0-.08.15.15,0,0,1,0-.07.18.18,0,0,1,.07,0l.07,0,88.57-7.17a.25.25,0,0,1,.15,0,.21.21,0,0,1,.07.13l6.93,85.69a.19.19,0,0,1,0,.08.16.16,0,0,1,0,.07.1.1,0,0,1-.06,0l-.07,0-88.58,7.16Zm-6.72-85.7,6.9,85.29,88.18-7.13-6.91-85.29Zm12.07,68.07a.19.19,0,0,1-.13,0l-.05-.06a.24.24,0,0,1,0-.08l-3.75-46.29a.19.19,0,0,1,0-.08.16.16,0,0,1,0-.07.15.15,0,0,1,.06,0l.07,0,75.11-6.09a.3.3,0,0,1,.15,0,.18.18,0,0,1,.06.14l3.75,46.31a.17.17,0,0,1,0,.07.16.16,0,0,1,0,.07.1.1,0,0,1-.06,0l-.07,0-75.11,6.08Zm-3.53-46.32,3.71,45.92,74.7-6-3.71-45.91Z"/><path class="cls-5" d="M179.91,28.55a3.79,3.79,0,1,0-3.78-3.78A3.78,3.78,0,0,0,179.91,28.55Z"/><path class="cls-5" d="M177.31,31.17a.21.21,0,0,1-.2-.2.18.18,0,0,1,.06-.14.2.2,0,0,1,.14-.06l73.74-6h.08l.06,0,.05.06a.11.11,0,0,1,0,.08s0,.05,0,.07a.43.43,0,0,1,0,.07l-.06.05-.08,0-73.74,6Z"/><path class="cls-5" d="M177.71,36a.25.25,0,0,1-.14-.06.2.2,0,0,1-.06-.14.2.2,0,0,1,.06-.15.24.24,0,0,1,.14,0L236,30.88a.2.2,0,0,1,.15.05.21.21,0,0,1,.07.13.19.19,0,0,1,0,.08.16.16,0,0,1,0,.07l-.06.05-.07,0L177.73,36Z"/><path class="cls-4" d="M186.38,99.57a4.81,4.81,0,1,0-4.81-4.81A4.8,4.8,0,0,0,186.38,99.57Z"/><path class="cls-4" d="M197.19,98.69a4.81,4.81,0,1,0-4.81-4.8A4.81,4.81,0,0,0,197.19,98.69Z"/><path class="cls-3" d="M184.56,94.23l-.8.07a.28.28,0,0,0-.26.31l.18,2.26a.29.29,0,0,0,.31.27l.79-.07a.28.28,0,0,0,.27-.31l-.18-2.26A.29.29,0,0,0,184.56,94.23Z"/><path class="cls-3" d="M185.51,94.31l.2,2.33,3.33-.26s.54-2.8.09-3a6.32,6.32,0,0,0-1.77,0s.49-1.93,0-2S186.18,93.19,185.51,94.31Z"/><path class="cls-3" d="M197.09,92.64l.06-.12a1.61,1.61,0,0,1,.63-.61,1.27,1.27,0,0,1,.66-.16,1.36,1.36,0,0,1,.87.29,1.39,1.39,0,0,1,.48.77,2.12,2.12,0,0,1,.05.56,2,2,0,0,1-.07.54,2.22,2.22,0,0,1-.4.76c-.18.23-.38.45-.58.66-.36.36-.71.73-1.06,1.09-.11.11-.21.22-.31.34v0l-.09-.07q-.6-.48-1.2-.93l-.8-.6a3.08,3.08,0,0,1-.49-.53,1.79,1.79,0,0,1-.31-.69,2.61,2.61,0,0,1-.08-.56,1.37,1.37,0,0,1,.19-.79,1.32,1.32,0,0,1,.61-.53,1.46,1.46,0,0,1,.8-.11,1.35,1.35,0,0,1,.73.35,1.64,1.64,0,0,1,.29.3Z"/><path class="cls-5" d="M205.93,21l-19.75,1.6.2,2.39,19.74-1.6Z"/><path class="cls-5" d="M205.54,93.41a.24.24,0,0,1-.14,0,.22.22,0,0,1-.06-.13.22.22,0,0,1,0-.08.21.21,0,0,1,0-.07l.06,0,.08,0,14.18-1.14s.05,0,.08,0l.06,0,0,.06a.24.24,0,0,1,0,.08.23.23,0,0,1,0,.14.21.21,0,0,1-.14.07l-14.18,1.15Z"/><path class="cls-3" d="M266.51,52.31c1-.66,2.06-9.43-.93-11.45a73.32,73.32,0,0,1-6.17-4.8l.28,3.48s-3.12-1.1-3.56.4.25,3.64,4.14,6.7l.23,2.89Z"/><path class="cls-2" d="M266.51,52.51a.14.14,0,0,1-.09,0l-6-2.8a.23.23,0,0,1-.12-.17l-.23-2.8c-3.31-2.62-4.7-4.93-4.13-6.85a1,1,0,0,1,.23-.43,1,1,0,0,1,.38-.3,4.64,4.64,0,0,1,2.92.09l-.26-3.17a.27.27,0,0,1,0-.12.3.3,0,0,1,.08-.08.17.17,0,0,1,.12,0,.16.16,0,0,1,.11,0,76.9,76.9,0,0,0,6.15,4.8c1.81,1.21,2.06,4.51,2.05,6.39,0,2.27-.46,5-1.12,5.42A.17.17,0,0,1,266.51,52.51Zm-5.82-3.13,5.78,2.68a11.47,11.47,0,0,0,.86-5c0-3-.66-5.21-1.87-6a68.09,68.09,0,0,1-5.8-4.5l.24,3a.3.3,0,0,1,0,.1.16.16,0,0,1-.06.08.19.19,0,0,1-.1.05h-.1s-2-.69-2.89-.22a.69.69,0,0,0-.25.2.76.76,0,0,0-.15.28c-.52,1.77.85,3.94,4.07,6.47a.18.18,0,0,1,.05.07.19.19,0,0,1,0,.08Z"/><path class="cls-3" d="M171.8,51.39l-.1-.06c-3-1.41-2.71,4.06-2.43,5.67s1.27,5.94,3.88,4.17C176,59.23,174.68,52.85,171.8,51.39Z"/><path class="cls-2" d="M172,61.8a1.49,1.49,0,0,1-.61-.13c-1-.43-1.8-2-2.28-4.64-.21-1.2-.51-4.8.85-5.84a1.68,1.68,0,0,1,1.86,0l.11.05c1.63.83,2.87,3.2,3,5.73.13,2-.48,3.6-1.66,4.4A2.34,2.34,0,0,1,172,61.8Zm-1.17-10.49a1,1,0,0,0-.62.21c-1.1.85-.93,4.09-.69,5.44.56,3.11,1.43,4.1,2,4.33A1.55,1.55,0,0,0,173,61c1.06-.72,1.6-2.2,1.48-4-.15-2.36-1.33-4.63-2.8-5.38l-.1,0A1.92,1.92,0,0,0,170.79,51.31Z"/><path class="cls-2" d="M190.16,76.19a.25.25,0,0,1-.15,0A.25.25,0,0,1,190,76a37.62,37.62,0,0,0-1.77-6.6s0-.06,0-.08a.19.19,0,0,1,0-.08.18.18,0,0,1,.05-.07l.07,0a.25.25,0,0,1,.15,0,.22.22,0,0,1,.11.12A36.76,36.76,0,0,1,190.36,76a.22.22,0,0,1,0,.08.16.16,0,0,1,0,.07l-.06,0-.08,0Z"/><path class="cls-3" d="M215,79l-7.92-1.92L206.41,79l8,2.14Z"/><path class="cls-2" d="M214.43,81.38h-.06l-8-2.14-.07,0a.2.2,0,0,1-.06-.07.33.33,0,0,1,0-.16l.68-1.92a.18.18,0,0,1,.1-.11.19.19,0,0,1,.15,0l7.91,1.91.07,0s0,0,.06.06l0,.07a.28.28,0,0,1,0,.09l-.57,2.13a.18.18,0,0,1-.09.13A.27.27,0,0,1,214.43,81.38Zm-7.75-2.49,7.59,2,.47-1.74-7.53-1.82Z"/><path class="cls-5" d="M188.08,56a.77.77,0,0,1-.8-.58l-1.35-4.57a.75.75,0,0,1,0-.33.81.81,0,0,1,.1-.31.67.67,0,0,1,.22-.25.69.69,0,0,1,.3-.14l1.6-.47a.69.69,0,0,1,.32,0,.63.63,0,0,1,.3.1.82.82,0,0,1,.25.2.65.65,0,0,1,.14.29l1.35,4.56a.81.81,0,0,1-.07.63.78.78,0,0,1-.48.39l-1.6.47A.69.69,0,0,1,188.08,56Zm.25-6.27a.24.24,0,0,0-.12,0l-1.6.47a.39.39,0,0,0-.26.2.38.38,0,0,0,0,.15.88.88,0,0,0,0,.17l1.35,4.56a.39.39,0,0,0,.2.26l.16.05a.45.45,0,0,0,.16,0l1.6-.46a.36.36,0,0,0,.15-.08.45.45,0,0,0,.1-.13.38.38,0,0,0,.05-.15.42.42,0,0,0,0-.16l-1.35-4.57a.45.45,0,0,0-.15-.21A.37.37,0,0,0,188.33,49.77Z"/><path class="cls-5" d="M191.89,54.94a.12.12,0,0,1-.1,0,.12.12,0,0,1,0-.05.16.16,0,0,1,0-.07L190.29,50a.24.24,0,0,1,0-.12c.29-.86.53-1.87.77-2.86.53-2.23.95-4,1.86-4.06a.66.66,0,0,1,.28,0,.51.51,0,0,1,.23.15c.68.67.68,3,.68,3.87a11.38,11.38,0,0,1,3.48-.67c.28,0,1.18.61,1.26,6.36a.17.17,0,0,1,0,.12.18.18,0,0,1-.1.07l-6.76,2Zm-1.2-5L192,54.5l6.42-1.9c0-2.8-.42-5.75-.91-5.82a14.23,14.23,0,0,0-3.6.75h-.09a.18.18,0,0,1-.09,0,.11.11,0,0,1-.06-.07.15.15,0,0,1,0-.09c0-.89,0-3.3-.54-3.85a.31.31,0,0,0-.09-.07l-.11,0c-.62,0-1.09,2-1.51,3.75A25.86,25.86,0,0,1,190.69,50Z"/><path class="cls-5" d="M205,59.7a7.62,7.62,0,0,1-1.43-.14,5.61,5.61,0,0,1-3.86-2.67s0,0,0-.07a.22.22,0,0,1,0-.08.16.16,0,0,1,0-.07.1.1,0,0,1,.06-.05l.07,0h.08l.07,0,0,.06a5.07,5.07,0,0,0,1.53,1.63,5.21,5.21,0,0,0,2.07.84,8.59,8.59,0,0,0,4.49-.45.22.22,0,0,1,.16,0,.29.29,0,0,1,.1.12.19.19,0,0,1,0,.15.22.22,0,0,1-.12.11A10.17,10.17,0,0,1,205,59.7Z"/><path class="cls-2" d="M232.51,114.89l1.28,8.84H185.73l2.85-13.79Z"/></g></g></svg>