<svg xmlns="http://www.w3.org/2000/svg" viewBox="0 0 569.53 480.45"><defs><style>.cls-1{fill:#f4f4f4;}</style></defs><g id="Capa_2" data-name="Capa 2"><g id="Capa_1-2" data-name="Capa 1"><path class="cls-1" d="M117,465.09C62.85,476.3,79.16,406.5,58.76,367,31.61,314.44-2.83,288.66.19,227.49,8.12,66.68,331.13-64,462.19,33.52c61.47,45.74,58.81,99.78,72.22,172,10.22,55,71.39,131.54,3.67,145.7-47.33,9.89-46.33-57.9-93.81-51.92-72.65,9.15,13.86,151.28-58.58,156.61-64.49,4.75-7.13-126.44-71.78-115.45-64.86,11,4.4,122.27-59.9,138.66-69,17.59-17.75-149.64-83.39-120.87C122.88,379.22,167.55,454.65,117,465.09Z"/></g></g></svg>