<svg xmlns="http://www.w3.org/2000/svg" viewBox="0 0 601.83 480.45"><defs><style>.cls-1{fill:#f4f4f4;}.cls-2{fill:#fff;}.cls-3{fill:#242424;}.cls-4{fill:#07adef;}.cls-5{fill:#d1d3d4;}</style></defs><g id="Capa_2" data-name="Capa 2"><g id="Capa_1-2" data-name="Capa 1"><path class="cls-1" d="M133.22,465.09C79,476.3,95.34,406.5,74.94,367c-27.15-52.56-61.59-78.34-58.57-139.51C24.3,66.68,347.31-64,478.37,33.52c61.47,45.74,58.81,99.78,72.22,172,10.22,55,71.4,131.54,3.67,145.7-47.32,9.89-46.33-57.9-93.81-51.92-72.65,9.15,13.87,151.28-58.57,156.61-64.5,4.75-7.14-126.44-71.79-115.45-64.86,11,4.4,122.27-59.9,138.66-69,17.59-17.75-149.64-83.38-120.87C139.06,379.22,183.73,454.65,133.22,465.09Z"/><path class="cls-2" d="M348.58,109.82a6.45,6.45,0,0,0,.36,3.42c1.49,4.75,12.61,23,12.32,8.76C361.18,117.79,350.09,103.57,348.58,109.82Z"/><path class="cls-3" d="M359.46,127.83c-3.74,0-10-11.3-11-14.46a7.08,7.08,0,0,1-.37-3.7c.45-1.86,1.65-2,2.34-1.94,3.82.41,11.3,10.47,11.38,14.27s-.61,5.57-2.09,5.81Zm-10.38-17.92a6,6,0,0,0,.37,3.15c1.25,4.06,7.62,14.1,10.09,13.72.38-.06,1.29-.66,1.2-4.76-.07-3.2-7.23-12.9-10.44-13.2-.43,0-.94,0-1.22,1.14Z"/><path class="cls-4" d="M472.6,153l-72.88,13.32s-23.62-34-24.36-33.39C368.12,139,358.8,146.6,358.8,146.6s6.89,45.8,24.84,54.94,74-13.34,74-13.34Z"/><path class="cls-4" d="M532.26,155.69l38.32,22.58,12.18-62.21,18.82,7.1s3.63,112-17,109.28-69.88-32.1-69.88-32.1Z"/><path class="cls-4" d="M472.6,153s-24.87-1.31-42.63,44.09-30,74.66-30,74.66L512.6,282.94s13.59-50.75,19.47-88.42c3-19.08,4-34.8.22-38.88C521.09,143.57,472.6,153,472.6,153Z"/><path class="cls-3" d="M515.66,271.55h-.16a.55.55,0,0,1-.31-.25.51.51,0,0,1,0-.4L541,183.11a.55.55,0,0,1,.25-.31.51.51,0,0,1,.4,0,.44.44,0,0,1,.18.09.51.51,0,0,1,.13.16.33.33,0,0,1,.06.19.5.5,0,0,1,0,.21l-25.8,87.79a.49.49,0,0,1-.19.26A.55.55,0,0,1,515.66,271.55Z"/><path class="cls-3" d="M402.86,265.11a.31.31,0,0,1-.19,0,.55.55,0,0,1-.29-.27.58.58,0,0,1,0-.41l36.05-91.87a.62.62,0,0,1,.11-.17.66.66,0,0,1,.17-.12.52.52,0,0,1,.4,0,.51.51,0,0,1,.3.67l-36,91.88a.56.56,0,0,1-.21.22A.5.5,0,0,1,402.86,265.11Z"/><path class="cls-4" d="M458.26,146.15v-1.79a17,17,0,0,1,.88-6.26,14.59,14.59,0,0,1,4.89-5.73,53.18,53.18,0,0,1,28.7-10.71,68.4,68.4,0,0,1,30.38,5.08,41.14,41.14,0,0,1,12.18,7.1,28.46,28.46,0,0,1,8.9,24.13c-.36,3-.5,8-1.74,10.82-2.17,4.93-8.59,4.76-12.92,6.09s-7.74,4.42-11.75,6.41c-3.63,1.81-8.54,1.4-12.53,1.71-9.74.75-20.38.39-28.42-5.16-5.49-3.78-6.44-10.84-9.52-16.29-1.75-3-4.06-4-6.32-6.16S458.27,149.4,458.26,146.15Z"/><path class="cls-3" d="M482.13,184.57a11.08,11.08,0,0,0,2.48,4.5,10.93,10.93,0,0,0,4.24,2.88,12,12,0,0,0,9.41-1.32,25.14,25.14,0,0,0,7.1-6.53,55.37,55.37,0,0,0,7-11.45,22,22,0,0,0,2.31-8.37,9.72,9.72,0,0,0-3-7.75c-5.75-5-21.22-4.85-26.53,1.5C480.16,164,480,178,482.13,184.57Z"/><path class="cls-3" d="M491.85,192.94a10.28,10.28,0,0,1-3.16-.49,11.49,11.49,0,0,1-7.06-7.72c-2.13-6.72-2-20.94,3.12-27,2.34-2.8,6.78-4.65,12.18-5.08,6.09-.5,12,.89,15.08,3.54a10.25,10.25,0,0,1,3.24,8.12,22.94,22.94,0,0,1-2.37,8.58,55.94,55.94,0,0,1-7.1,11.55,25,25,0,0,1-7.29,6.67A13.73,13.73,0,0,1,491.85,192.94Zm-9.22-8.52A10.41,10.41,0,0,0,485,188.7a10.55,10.55,0,0,0,4,2.75,11.44,11.44,0,0,0,4.62.28,11.62,11.62,0,0,0,4.36-1.55,24.07,24.07,0,0,0,7-6.41,55.12,55.12,0,0,0,6.95-11.34,21.54,21.54,0,0,0,2.27-8.17,9.06,9.06,0,0,0-.61-4,9.22,9.22,0,0,0-2.27-3.35c-2.87-2.47-8.49-3.76-14.3-3.28-5.14.42-9.32,2.14-11.47,4.73C480.69,164.19,480.57,177.9,482.63,184.42Z"/><path class="cls-2" d="M531.09,135.5c2.75-4.63,5.86-9.14,8-14s3.19-10.42,1.67-15.39a8.85,8.85,0,0,0-3.45-5.07,5.45,5.45,0,0,0-6.09.06A12.93,12.93,0,0,0,527,95.3a31.24,31.24,0,0,0-15.44-7.61,24.59,24.59,0,0,0-17.25,3.36c-2.09,1.36-4,3-6.17,4.2a13.18,13.18,0,0,1-12,0c-1.48,7.68,1.17,15.55,5.87,21.61s11.28,10.48,18.2,14a35.64,35.64,0,0,0,11.6,4.06,16.59,16.59,0,0,0,12.06-2.73"/><path class="cls-3" d="M531.09,136a.41.41,0,0,1-.26-.07.65.65,0,0,1-.16-.13.46.46,0,0,1-.08-.19.34.34,0,0,1,0-.2.48.48,0,0,1,.07-.2c.72-1.2,1.46-2.41,2.21-3.61a80.54,80.54,0,0,0,5.72-10.32c1.68-3.87,3.31-9.62,1.66-15a8.4,8.4,0,0,0-3.23-4.74,4.9,4.9,0,0,0-5.46,0,.5.5,0,0,1-.23.09.57.57,0,0,1-.26,0,.49.49,0,0,1-.21-.14.45.45,0,0,1-.12-.21,12.6,12.6,0,0,0-4.06-5.54,30.44,30.44,0,0,0-15.17-7.49,24.07,24.07,0,0,0-16.82,3.33c-.79.52-1.56,1.09-2.31,1.65a26.17,26.17,0,0,1-3.91,2.58,14,14,0,0,1-5.89,1.48,13.87,13.87,0,0,1-6-1.18c-1.1,6.82,1,14.21,5.88,20.51,4.06,5.24,9.79,9.65,18,13.89A35.09,35.09,0,0,0,512,134.54a16,16,0,0,0,11.67-2.63.56.56,0,0,1,.38-.07.54.54,0,0,1,.32.21.48.48,0,0,1,.1.37.51.51,0,0,1-.17.34,17.17,17.17,0,0,1-12.43,2.82A36.63,36.63,0,0,1,500,131.42c-8.37-4.32-14.21-8.83-18.36-14.21-5.2-6.7-7.39-14.74-6-22a.46.46,0,0,1,.11-.22.4.4,0,0,1,.19-.15.46.46,0,0,1,.23-.06.53.53,0,0,1,.24.06,12.81,12.81,0,0,0,11.53,0,26,26,0,0,0,3.75-2.49c.76-.57,1.55-1.16,2.38-1.69a25.14,25.14,0,0,1,17.59-3.42A31.47,31.47,0,0,1,527.4,95a14.39,14.39,0,0,1,4.12,5.37,6.1,6.1,0,0,1,6.09.29,9.32,9.32,0,0,1,3.67,5.33c1.75,5.72,0,11.72-1.69,15.75a80.2,80.2,0,0,1-5.8,10.46c-.75,1.2-1.49,2.39-2.21,3.6a.51.51,0,0,1-.21.2A.52.52,0,0,1,531.09,136Z"/><path class="cls-2" d="M491.46,149.14l-6.8,13.09s-5.2,15.64,7.5,16.24,20.56-11.36,20.56-11.36l13.12-29.5s-7.1-7.06,1.81-25a62,62,0,0,1-31.93-4.5s-12.24,18.69-13.89,28.06S491.46,149.14,491.46,149.14Z"/><path class="cls-3" d="M493,179h-.86c-3.36-.14-5.83-1.33-7.34-3.52-3.38-4.89-.74-13-.62-13.36l6.55-12.68c-2.35-.91-10.91-4.87-9.41-13.3,1.65-9.37,13.47-27.49,14-28.26a.51.51,0,0,1,.29-.21.47.47,0,0,1,.35,0,61.89,61.89,0,0,0,31.64,4.46.45.45,0,0,1,.28,0,.55.55,0,0,1,.23.17.57.57,0,0,1,.08.28.5.5,0,0,1-.08.27c-4.53,9.07-4.79,15.23-4.22,18.78a10.58,10.58,0,0,0,2.37,5.58.62.62,0,0,1,.14.28.47.47,0,0,1,0,.31L513.2,167.32C513.08,167.52,505.33,179,493,179Zm2.93-70.16c-1.71,2.66-12.09,19.06-13.58,27.5-1.56,8.81,9.14,12.3,9.28,12.33a.62.62,0,0,1,.19.12.5.5,0,0,1,.13.19.38.38,0,0,1,.05.21.42.42,0,0,1-.05.22l-6.8,13.1s-2.55,7.89.53,12.36c1.32,1.91,3.51,2.94,6.53,3,12.28.56,20-11,20.1-11.07l13-29.12c-1.22-1.46-6-8.69,1.51-24.36A64,64,0,0,1,495.92,108.8Z"/><path class="cls-2" d="M504.78,122.91s-9,8.59-7.78,10.58,5.91,1.65,5.91,1.65"/><path class="cls-3" d="M502.07,135.68c-1.51,0-4.48-.23-5.5-1.94-1.3-2.16,5.69-9.13,7.86-11.16a.42.42,0,0,1,.16-.11.48.48,0,0,1,.2,0,.41.41,0,0,1,.19,0,.39.39,0,0,1,.17.11.46.46,0,0,1,.11.16.45.45,0,0,1,0,.2.43.43,0,0,1,0,.19.62.62,0,0,1-.11.17c-4.19,4-8.27,9-7.69,9.94.85,1.41,4.21,1.51,5.43,1.41a.59.59,0,0,1,.36.13.53.53,0,0,1,.17.35.46.46,0,0,1,0,.2.42.42,0,0,1-.1.17.44.44,0,0,1-.15.12.45.45,0,0,1-.19,0C502.83,135.66,502.51,135.68,502.07,135.68Z"/><path class="cls-3" d="M516.36,122.44c.3-1.48,0-2.79-.64-2.92s-1.42,1-1.71,2.46,0,2.79.65,2.92S516.07,123.93,516.36,122.44Z"/><path class="cls-3" d="M497.86,120.1c.28-1.49,0-2.78-.68-2.9s-1.39,1-1.66,2.47,0,2.78.68,2.9S497.59,121.58,497.86,120.1Z"/><path class="cls-2" d="M519.88,130.73a17.76,17.76,0,0,1,5.56-3.43,6,6,0,0,1,3.46-.48,4.75,4.75,0,0,1,2.33,1.47,9.16,9.16,0,0,1,2.08,3.48,9.38,9.38,0,0,1,.38,4,7.74,7.74,0,0,1-1.34,3.59,9.37,9.37,0,0,1-5.07,3.35,26.73,26.73,0,0,1-6.09.82"/><path class="cls-3" d="M521.09,144.09a.47.47,0,0,1-.27-.19.51.51,0,0,1-.11-.31.54.54,0,0,1,.38-.51,27.16,27.16,0,0,0,6-.8,9,9,0,0,0,4.85-3.14,7.41,7.41,0,0,0,1.24-3.37,8.75,8.75,0,0,0-2.31-7.1,4.3,4.3,0,0,0-2.08-1.32,5.78,5.78,0,0,0-3.15.45,17.67,17.67,0,0,0-5.43,3.33.52.52,0,0,1-.7-.07.61.61,0,0,1-.14-.35.58.58,0,0,1,.13-.35,18.89,18.89,0,0,1,5.74-3.53,6.61,6.61,0,0,1,3.75-.5,5.13,5.13,0,0,1,2.6,1.62,9.93,9.93,0,0,1,2.2,3.68,9.77,9.77,0,0,1,.41,4.26,8.44,8.44,0,0,1-1.44,3.84,10,10,0,0,1-5.4,3.55,28.14,28.14,0,0,1-6.26.83Z"/><path class="cls-3" d="M491.46,149.14s10.81,3.47,17.93,1.37c0,0-11.47,12.07-24.73,11.72Z"/><path class="cls-3" d="M485.23,162.76h-.58a.48.48,0,0,1-.26-.07.52.52,0,0,1-.18-.18.58.58,0,0,1-.06-.26.54.54,0,0,1,.06-.25L491,148.91a.55.55,0,0,1,.27-.25.55.55,0,0,1,.36,0c.1,0,10.74,3.41,17.62,1.38a.56.56,0,0,1,.34,0,.51.51,0,0,1,.26.22.54.54,0,0,1,.07.33.49.49,0,0,1-.14.3C509.3,151.36,498.32,162.76,485.23,162.76Zm6.49-13-6.2,11.93c10-.12,18.86-7.28,22.13-10.27C501.39,152.45,493.63,150.34,491.72,149.77Z"/><path class="cls-3" d="M474.15,179.58a.52.52,0,0,1-.33-.12.54.54,0,0,1-.18-.3A59,59,0,0,0,459.94,154a.53.53,0,0,1,0-.74.53.53,0,0,1,.74,0,60.23,60.23,0,0,1,14,25.69.67.67,0,0,1,0,.2.48.48,0,0,1-.22.34.41.41,0,0,1-.19.08Z"/><path class="cls-3" d="M509.05,188.71a.44.44,0,0,1-.33-.11.47.47,0,0,1-.13-.15.53.53,0,0,1-.07-.2.75.75,0,0,1,0-.21.64.64,0,0,1,.1-.18,71.22,71.22,0,0,1,31.4-20,.5.5,0,0,1,.4,0,.53.53,0,0,1,.27.3.75.75,0,0,1,0,.21.7.7,0,0,1-.06.19.54.54,0,0,1-.31.26,70.11,70.11,0,0,0-30.91,19.68.42.42,0,0,1-.18.14A.44.44,0,0,1,509.05,188.71Z"/><path class="cls-3" d="M500.6,124.77a4,4,0,0,1-.49,0L488.68,123a3,3,0,0,1-1.12-.41,3.09,3.09,0,0,1-.88-.81,3.23,3.23,0,0,1-.5-1.08,3.17,3.17,0,0,1,0-1.19l.78-4.89A3,3,0,0,1,490.4,112l11.44,1.81a3,3,0,0,1,1.12.41,3.09,3.09,0,0,1,.88.81,3,3,0,0,1,.49,1.08,3,3,0,0,1,.05,1.19l-.79,4.86a3.08,3.08,0,0,1-1,1.83,3,3,0,0,1-2,.74Zm-.32-1a2.11,2.11,0,0,0,.79,0,2,2,0,0,0,.72-.36,1.91,1.91,0,0,0,.53-.6,2,2,0,0,0,.25-.75l.77-4.89a2,2,0,0,0-1.66-2.3L490.24,113a2.05,2.05,0,0,0-.78,0,1.88,1.88,0,0,0-.7.33,1.84,1.84,0,0,0-.54.57,1.88,1.88,0,0,0-.26.73l-.79,4.9a2.06,2.06,0,0,0,.37,1.48,2,2,0,0,0,1.3.81Z"/><path class="cls-3" d="M521,128a3.84,3.84,0,0,1-.48,0l-11.44-1.82a3.09,3.09,0,0,1-2-1.22,3,3,0,0,1-.54-2.26l.77-4.89a3.06,3.06,0,0,1,.41-1.14,2.87,2.87,0,0,1,.81-.89,3.07,3.07,0,0,1,1.08-.51,3,3,0,0,1,1.19,0l11.44,1.81a3,3,0,0,1,2.53,3.49l-.77,4.9a3.12,3.12,0,0,1-.41,1.14,2.87,2.87,0,0,1-.81.89A3.07,3.07,0,0,1,521,128Zm-.32-1.08a2.07,2.07,0,0,0,1.49-.35,2,2,0,0,0,.8-1.31l.77-4.9a2,2,0,0,0-.37-1.48,2,2,0,0,0-1.29-.8l-11.44-1.82a2.06,2.06,0,0,0-1.48.37,2,2,0,0,0-.8,1.3l-.79,4.89a2.06,2.06,0,0,0,.37,1.48,2,2,0,0,0,1.3.8Z"/><path class="cls-3" d="M507.83,118.37a.4.4,0,0,1-.19,0,.45.45,0,0,1-.17-.11c-1.83-1.72-3.22-.65-3.29-.6a.42.42,0,0,1-.17.1.5.5,0,0,1-.21,0,.33.33,0,0,1-.19-.06.48.48,0,0,1-.16-.13.51.51,0,0,1-.09-.18.44.44,0,0,1,0-.2.53.53,0,0,1,.06-.19.51.51,0,0,1,.13-.16c.75-.6,2.67-1.23,4.65.65a.53.53,0,0,1,.14.58.63.63,0,0,1-.19.24A.47.47,0,0,1,507.83,118.37Z"/><path class="cls-3" d="M500.68,140.62a29.12,29.12,0,0,1-8-1.35,10.83,10.83,0,0,0-1.12-.29.52.52,0,0,1-.3,0,.58.58,0,0,1-.23-.18.54.54,0,0,1-.07-.39.47.47,0,0,1,.21-.32c.29-.2.58-.12,1.79.23,4.06,1.16,14.69,4.23,18-6.09a.51.51,0,0,1,.09-.18.48.48,0,0,1,.16-.12.41.41,0,0,1,.19-.05.46.46,0,0,1,.2,0,.59.59,0,0,1,.17.1.44.44,0,0,1,.12.15.54.54,0,0,1,0,.38C509.89,139,505.11,140.62,500.68,140.62Z"/><path class="cls-2" d="M350.32,40.12l17.62,217.49,224.83-18.19-17.6-217.5ZM572.13,197.44,381.49,212.87,372,95.32,562.65,79.9Z"/><path class="cls-3" d="M367.94,258.12a.52.52,0,0,1-.36-.11.5.5,0,0,1-.18-.36L349.84,40.16a.64.64,0,0,1,0-.2.56.56,0,0,1,.09-.17.65.65,0,0,1,.16-.13.59.59,0,0,1,.19,0L575.13,21.42a.49.49,0,0,1,.37.12.5.5,0,0,1,.18.34l17.6,217.5a.44.44,0,0,1,0,.2.42.42,0,0,1-.1.17.47.47,0,0,1-.15.13.46.46,0,0,1-.2.05L368,258.12Zm-17-217.55,17.51,216.5L592.23,239,574.71,22.47Zm30.62,172.78a.47.47,0,0,1-.32-.12.65.65,0,0,1-.13-.16.41.41,0,0,1-.05-.19L371.5,95.36a.63.63,0,0,1,0-.19.51.51,0,0,1,.09-.18.61.61,0,0,1,.16-.12.41.41,0,0,1,.19-.05L562.61,79.37a.5.5,0,0,1,.37.12.52.52,0,0,1,.18.34l9.51,117.55a.64.64,0,0,1,0,.2.56.56,0,0,1-.09.17.65.65,0,0,1-.16.13.59.59,0,0,1-.19.05L381.56,213.35Zm-9-117.56L382,212.33,571.59,197l-9.4-116.55Z"/><path class="cls-5" d="M378.24,62.84a9.61,9.61,0,1,0-9.61-9.61A9.62,9.62,0,0,0,378.24,62.84Z"/><path class="cls-5" d="M371.64,69.48a.51.51,0,0,1-.51-.51.47.47,0,0,1,.15-.35.48.48,0,0,1,.36-.15L558.8,53.32a.64.64,0,0,1,.2,0,.56.56,0,0,1,.17.09.65.65,0,0,1,.13.16.59.59,0,0,1,.05.19.46.46,0,0,1,0,.2.59.59,0,0,1-.1.17.57.57,0,0,1-.15.12.66.66,0,0,1-.2.06L371.72,69.48Z"/><path class="cls-5" d="M372.65,81.73a.51.51,0,0,1-.51-.5.51.51,0,0,1,.15-.36.51.51,0,0,1,.36-.15l147.84-12a.52.52,0,0,1,.36.12.48.48,0,0,1,.18.35.47.47,0,0,1,0,.2.42.42,0,0,1-.1.17.44.44,0,0,1-.15.12.7.7,0,0,1-.19.06l-147.87,12Z"/><path class="cls-4" d="M394.65,243.11a12.2,12.2,0,1,0-12.2-12.2A12.2,12.2,0,0,0,394.65,243.11Z"/><path class="cls-4" d="M422.09,240.88a12.2,12.2,0,1,0-12.2-12.2A12.2,12.2,0,0,0,422.09,240.88Z"/><path class="cls-2" d="M390,229.56l-2,.16a.75.75,0,0,0-.69.8l.46,5.73a.75.75,0,0,0,.8.68l2-.16a.73.73,0,0,0,.68-.8l-.45-5.73A.75.75,0,0,0,390,229.56Z"/><path class="cls-2" d="M392.44,229.76l.51,5.92,8.45-.68s1.39-7.11.24-7.52-4.51,0-4.51,0,1.26-4.92-.1-5.08S394.14,226.92,392.44,229.76Z"/><path class="cls-2" d="M421.83,225.53l.17-.32a4.15,4.15,0,0,1,1.59-1.55,3.64,3.64,0,0,1,1.68-.42A3.49,3.49,0,0,1,428.7,226a5.72,5.72,0,0,1,.11,1.43,5.28,5.28,0,0,1-.17,1.36,5.39,5.39,0,0,1-1,1.92,18.14,18.14,0,0,1-1.48,1.68c-.89.92-1.8,1.85-2.69,2.78-.26.27-.51.56-.77.84v0l-.22-.17c-1-.81-2-1.58-3-2.34-.68-.5-1.37-1-2-1.55a6.92,6.92,0,0,1-1.26-1.33,5.13,5.13,0,0,1-.79-1.75,7.69,7.69,0,0,1-.2-1.43,3.47,3.47,0,0,1,.49-2,3.42,3.42,0,0,1,1.54-1.35,3.5,3.5,0,0,1,2-.29,3.57,3.57,0,0,1,1.86.9,4.06,4.06,0,0,1,.72.77Z"/><path class="cls-5" d="M444.28,43.59l-50.13,4.06.49,6.08,50.13-4.06Z"/><path class="cls-5" d="M443.27,227.48a.52.52,0,0,1-.33-.14.47.47,0,0,1-.16-.33.46.46,0,0,1,0-.2.56.56,0,0,1,.09-.17.44.44,0,0,1,.15-.12.47.47,0,0,1,.19-.06l36-2.91a.41.41,0,0,1,.19,0,.42.42,0,0,1,.17.1.57.57,0,0,1,.12.15.46.46,0,0,1,.05.2.47.47,0,0,1-.11.36.48.48,0,0,1-.34.18l-36,2.92Z"/><path class="cls-2" d="M598,123.13c2.54-1.67,5.23-23.93-2.35-29A190.2,190.2,0,0,1,580,81.91l.71,8.83s-7.92-2.81-9,1,.64,9.25,10.5,17l.59,7.35Z"/><path class="cls-3" d="M598,123.66a.41.41,0,0,1-.22,0l-15.23-7.1a.6.6,0,0,1-.21-.18.62.62,0,0,1-.09-.26l-.58-7.1c-8.4-6.66-11.94-12.52-10.49-17.41a3,3,0,0,1,.57-1.09,2.91,2.91,0,0,1,1-.76c2.15-1.11,5.82-.22,7.41.24l-.66-8a.45.45,0,0,1,.07-.3.5.5,0,0,1,.22-.21.52.52,0,0,1,.3-.06.56.56,0,0,1,.28.13A189,189,0,0,0,596,93.69c4.58,3.1,5.23,11.47,5.2,16.24,0,5.74-1.18,12.64-2.85,13.74A.55.55,0,0,1,598,123.66Zm-14.76-8,14.66,6.81c.92-1.16,2.16-6.33,2.19-12.69,0-7.67-1.68-13.25-4.74-15.31A178.78,178.78,0,0,1,580.66,83.1l.6,7.56a.57.57,0,0,1,0,.26.56.56,0,0,1-.4.31.6.6,0,0,1-.26,0s-5-1.74-7.34-.55a1.94,1.94,0,0,0-.63.51,1.75,1.75,0,0,0-.38.71c-1.32,4.49,2.15,10,10.32,16.44a.36.36,0,0,1,.14.16.66.66,0,0,1,.06.2Z"/><path class="cls-2" d="M357.65,120.8l-.26-.13c-7.75-3.59-6.88,10.3-6.16,14.37.81,4.43,3.22,15.08,9.83,10.59C368.28,140.71,365,124.52,357.65,120.8Z"/><path class="cls-3" d="M358.07,147.23a4,4,0,0,1-1.56-.31c-2.64-1.11-4.59-5.08-5.78-11.79-.54-3-1.3-12.18,2.15-14.83,1.23-1,2.82-1,4.72-.11l.28.14c4.12,2.1,7.28,8.12,7.69,14.54.32,5.07-1.22,9.13-4.22,11.16A5.75,5.75,0,0,1,358.07,147.23Zm-3-26.62a2.47,2.47,0,0,0-1.57.52c-2.79,2.16-2.38,10.39-1.77,13.82,1.42,7.9,3.65,10.39,5.17,11,1.14.48,2.39.24,3.85-.76,2.68-1.83,4.06-5.56,3.75-10.26-.37-6-3.37-11.76-7.1-13.66l-.25-.13A5.16,5.16,0,0,0,355.09,120.61Z"/><path class="cls-3" d="M404.24,183.76a.54.54,0,0,1-.36-.14.51.51,0,0,1-.17-.35c-.37-5.2-4.44-16.64-4.48-16.75a.76.76,0,0,1,0-.21.49.49,0,0,1,.05-.2.61.61,0,0,1,.12-.16.4.4,0,0,1,.18-.1.51.51,0,0,1,.4,0,.55.55,0,0,1,.27.29c.17.48,4.16,11.68,4.54,17a.76.76,0,0,1,0,.21.59.59,0,0,1-.1.17.48.48,0,0,1-.16.13.49.49,0,0,1-.2,0Z"/><path class="cls-2" d="M467.29,191l-20.1-4.86-1.7,4.86,20.36,5.43Z"/><path class="cls-3" d="M465.85,196.92h-.14l-20.37-5.43a.44.44,0,0,1-.18-.09.55.55,0,0,1-.14-.17.49.49,0,0,1,0-.21.52.52,0,0,1,0-.21l1.73-4.87a.51.51,0,0,1,.24-.28.54.54,0,0,1,.37,0l20.09,4.86a.48.48,0,0,1,.19.09.5.5,0,0,1,.14.15.49.49,0,0,1,.07.19.5.5,0,0,1,0,.21l-1.44,5.43a.57.57,0,0,1-.25.32A.52.52,0,0,1,465.85,196.92Zm-19.68-6.31,19.28,5.15,1.18-4.41-19.11-4.62Z"/><path class="cls-5" d="M399,132.62a2,2,0,0,1-1.27-.39,2,2,0,0,1-.76-1.1l-3.42-11.59a2,2,0,0,1-.09-.83,1.88,1.88,0,0,1,.25-.8,1.85,1.85,0,0,1,.55-.63,2.21,2.21,0,0,1,.76-.36l4.06-1.2a2,2,0,0,1,.81-.08,2,2,0,0,1,.78.23,2.11,2.11,0,0,1,.62.53,1.94,1.94,0,0,1,.37.73L405,128.72a2.1,2.1,0,0,1-.17,1.57,2.06,2.06,0,0,1-1.23,1l-4.06,1.19A1.91,1.91,0,0,1,399,132.62Zm.64-15.93a.76.76,0,0,0-.3,0l-4.07,1.2a.91.91,0,0,0-.37.18.87.87,0,0,0-.28.32.93.93,0,0,0-.12.4,1.21,1.21,0,0,0,.05.42l3.42,11.58a1.13,1.13,0,0,0,.19.38,1,1,0,0,0,.72.39,1.13,1.13,0,0,0,.41-.05l4.06-1.19a1,1,0,0,0,.63-.52.9.9,0,0,0,.13-.39.81.81,0,0,0,0-.41l-3.42-11.59a1,1,0,0,0-.38-.53A1,1,0,0,0,399.6,116.69Z"/><path class="cls-5" d="M408.64,129.83a.5.5,0,0,1-.24-.06.44.44,0,0,1-.15-.12.38.38,0,0,1-.09-.18l-3.58-12.12a.55.55,0,0,1,0-.31c.74-2.16,1.35-4.75,1.95-7.24,1.35-5.68,2.42-10.15,4.73-10.3a1.58,1.58,0,0,1,.71.11,1.79,1.79,0,0,1,.59.39c1.71,1.7,1.71,7.64,1.71,9.82,1.8-.57,6.68-2,8.85-1.71.7.09,3,1.55,3.19,16.15a.45.45,0,0,1-.1.31.48.48,0,0,1-.26.18l-17.17,5.07Zm-3-12.61L409,128.7l16.3-4.81c-.12-7.11-1.07-14.6-2.31-14.77-2.39-.33-9,1.85-9.13,1.89a.65.65,0,0,1-.24,0,.44.44,0,0,1-.22-.1.55.55,0,0,1-.16-.18.69.69,0,0,1-.05-.24c.1-2.25.05-8.38-1.37-9.77a.63.63,0,0,0-.51-.22c-1.57.1-2.76,5.07-3.81,9.52A69,69,0,0,1,405.6,117.22Z"/><path class="cls-5" d="M441.78,141.89a18.24,18.24,0,0,1-3.61-.34,14.28,14.28,0,0,1-9.82-6.77.45.45,0,0,1-.05-.19.44.44,0,0,1,0-.2.76.76,0,0,1,.09-.18.61.61,0,0,1,.16-.12.33.33,0,0,1,.19-.06.69.69,0,0,1,.2,0,.59.59,0,0,1,.17.1.47.47,0,0,1,.13.15,13.34,13.34,0,0,0,3.88,4.14,13.17,13.17,0,0,0,5.25,2.12,21.66,21.66,0,0,0,11.41-1.15.53.53,0,0,1,.39,0,.5.5,0,0,1,.26.29.53.53,0,0,1,0,.39.57.57,0,0,1-.29.26A25.57,25.57,0,0,1,441.78,141.89Z"/><path class="cls-3" d="M511.75,282,515,304.42H393l7.24-35Z"/><path class="cls-3" d="M80.27,304.9l-3.12,23H194.27l-7-35.83Z"/><path class="cls-3" d="M194.27,328.42H77.2a.59.59,0,0,1-.23-.05.67.67,0,0,1-.19-.14.53.53,0,0,1-.11-.21.44.44,0,0,1,0-.23l3.11-23a.55.55,0,0,1,.16-.32.52.52,0,0,1,.31-.16L187.29,291.5a.54.54,0,0,1,.39.11.57.57,0,0,1,.22.33l6.94,35.83a.49.49,0,0,1,0,.24.61.61,0,0,1-.11.21.45.45,0,0,1-.21.15A.51.51,0,0,1,194.27,328.42Zm-116.48-1.1H193.6l-6.72-34.67L80.76,305.42Z"/><path class="cls-3" d="M133.66,97.1s-8-8.68-17-10.35-38,8.81-40.8,20.2,1.93,27.82,1.93,27.82S120.13,95.14,133.66,97.1Z"/><path class="cls-3" d="M77.77,135.29h-.15a.72.72,0,0,1-.24-.14.56.56,0,0,1-.14-.25c-.2-.67-4.76-16.64-1.93-28.07,2.91-11.75,32.13-22.36,41.43-20.62,9.05,1.69,17,10.17,17.33,10.52a.62.62,0,0,1,.14.31.54.54,0,0,1-.05.33.59.59,0,0,1-.24.23.65.65,0,0,1-.33.06c-13.12-1.88-55,37.1-55.45,37.5A.51.51,0,0,1,77.77,135.29ZM114.4,87.11c-10.56,0-35.49,9.75-38,20-2.39,9.66.77,23.12,1.68,26.64,5.51-5,40.23-36.61,54.22-37.23-2.39-2.29-8.81-7.91-15.74-9.2A10.92,10.92,0,0,0,114.4,87.11Z"/><path class="cls-2" d="M119.43,136c22.75-11,37.81-26.92,33.63-35.55s-26-6.73-48.75,4.27S66.5,131.68,70.67,140.31,96.68,147,119.43,136Z"/><path class="cls-3" d="M84.11,146.27c-7.23,0-12.11-2-13.93-5.73-2.12-4.4.29-10.61,6.82-17.5s16-13.45,27.07-18.79,22.26-8.74,31.53-9.55c9.46-.83,15.83,1.1,18,5.5s-.3,10.63-6.82,17.52-16,13.43-27.07,18.78-22.26,8.74-31.53,9.56A38,38,0,0,1,84.11,146.27Zm55.58-50.65c-1.26,0-2.59.07-4,.19-9.15.8-20.21,4.15-31.16,9.45s-20.44,11.9-26.75,18.5-8.53,12.32-6.61,16.29,7.91,5.71,16.87,4.92c9.15-.81,20.21-4.15,31.16-9.45S139.65,123.64,146,117s8.53-12.31,6.61-16.27c-1.61-3.36-6.14-5.09-12.88-5.09Z"/><path class="cls-4" d="M96.62,170.38,28,178.26,11.36,222.12l88.76,3Z"/><path class="cls-4" d="M167.1,169.41,236,200.52l5.52,47.6L160.3,222.06Z"/><path class="cls-4" d="M117.47,171.73c-6.08.6-28.21,2.62-33.88,5.16-19.25,8.65-4,132.49-6.6,132.85.65-.09,115.23-11,115.23-11-4.49-43.54,4.09-75.5-20.29-124.49C165,160.33,132.72,170.21,117.47,171.73Z"/><path class="cls-3" d="M114,179.12s3.63,30.32,20,26.42,8.55-31.13,8.55-31.13Z"/><path class="cls-3" d="M131.14,206.44a10.83,10.83,0,0,1-6.38-2.05c-9-6.24-11.23-24.43-11.32-25.21a.55.55,0,0,1,.1-.39.56.56,0,0,1,.35-.21l28.54-4.72a.51.51,0,0,1,.61.38c.2.67,4.64,16.52-.8,25.85a12.45,12.45,0,0,1-8.15,6A12.16,12.16,0,0,1,131.14,206.44Zm-16.51-26.87c.44,3.05,3.05,18.53,10.78,23.91a10,10,0,0,0,4.05,1.71,10.16,10.16,0,0,0,4.39-.18,11.3,11.3,0,0,0,7.46-5.5c4.7-8,1.53-21.8.83-24.52Z"/><path class="cls-3" d="M179.18,225.3a.53.53,0,0,1-.34-.11.51.51,0,0,1-.2-.28l-11.72-42.44a.6.6,0,0,1,0-.23A.58.58,0,0,1,167,182a.57.57,0,0,1,.15-.16.44.44,0,0,1,.19-.1.6.6,0,0,1,.23,0,.86.86,0,0,1,.21.07.8.8,0,0,1,.17.15.52.52,0,0,1,.09.2l11.72,42.44a.52.52,0,0,1-.05.42,1.07,1.07,0,0,1-.14.16.72.72,0,0,1-.2.09A.32.32,0,0,1,179.18,225.3Z"/><path class="cls-3" d="M83.38,235.56a.51.51,0,0,1-.35-.13.53.53,0,0,1-.19-.33L76.61,195a.55.55,0,0,1,0-.22.48.48,0,0,1,.09-.19.57.57,0,0,1,.16-.15.68.68,0,0,1,.2-.07.59.59,0,0,1,.41.1.51.51,0,0,1,.22.35L83.92,235a.74.74,0,0,1,0,.21.72.72,0,0,1-.09.2.43.43,0,0,1-.16.14.5.5,0,0,1-.2.08Z"/><path class="cls-2" d="M162.72,144c-1.56-4.14-5.24-7-8.39-10.14-7.15-7.05-10.28-16-15.49-24.22a31.28,31.28,0,0,0-6.09-7c-7,1.42-15.55,3.41-22.2,6.35-21,9.29-26.95,20.44-27.11,20.59.85,11.32,4.12,29.64,7.71,40.39,1.67,5.11,3.69,12,9.52,13.83,1.66.53-.66-1.18,1-1.66,5.72-1.61,11.86-3.08,17.2-5.7,5-2.46,8.8-6.49,13.65-9.07,3.24-1.73,6.6-1.91,10-2.2a18.79,18.79,0,0,0,2.11-.19c5.31-.55,10.63-2.47,14.37-6.26S164.59,149,162.72,144Z"/><path class="cls-3" d="M101.07,184.38a1.91,1.91,0,0,1-.62-.13c-5.87-1.87-8-8.35-9.68-13.56l-.21-.62c-3.72-11.34-6.88-29.86-7.71-40.52a.67.67,0,0,1,0-.24.49.49,0,0,1,.13-.2c1.74-2.78,8.81-12.5,27.27-20.65,6.94-3.06,16-5.11,22.31-6.39a.71.71,0,0,1,.25,0,.65.65,0,0,1,.22.11,32.12,32.12,0,0,1,6.2,7.16c1.69,2.71,3.18,5.51,4.63,8.21,3.08,5.78,6,11.24,10.77,16,.57.56,1.17,1.1,1.76,1.68,2.68,2.53,5.51,5.14,6.76,8.65,1.84,4.93.3,11-3.84,15.25-4.4,4.5-10.44,6-14.7,6.42-.72.08-1.43.13-2.14.19H142c-3.3.24-6.34.47-9.33,2.07a51.3,51.3,0,0,0-6.31,4.26,47.24,47.24,0,0,1-7.35,4.82,83.24,83.24,0,0,1-14.57,5l-2.71.75a.47.47,0,0,0-.25.11,1.39,1.39,0,0,0,.13.44.93.93,0,0,1,0,1,1,1,0,0,1-.25.17A.79.79,0,0,1,101.07,184.38ZM84,129.65c.81,10.63,3.94,28.88,7.61,40.08l.21.61c1.58,4.88,3.56,10.93,8.66,12.76a1.28,1.28,0,0,1,.07-.88,1.36,1.36,0,0,1,.39-.44,1.38,1.38,0,0,1,.54-.24l2.73-.76a82,82,0,0,0,14.37-4.91,46,46,0,0,0,7.18-4.71,51.73,51.73,0,0,1,6.45-4.41c3.18-1.7,6.38-1.94,9.75-2.2h.51c.71,0,1.4-.11,2.1-.17,4.09-.44,9.84-1.84,14-6.1,3.85-3.91,5.3-9.57,3.6-14.09-1.22-3.31-3.9-5.8-6.47-8.24-.61-.57-1.2-1.1-1.79-1.71-4.89-4.82-8-10.61-11-16.21-1.43-2.7-2.91-5.51-4.59-8.15a30.74,30.74,0,0,0-5.78-6.73c-6.2,1.27-15.07,3.31-21.82,6.27-18.14,8-25.08,17.5-26.77,20.22Z"/><path class="cls-2" d="M135.26,116.14s9.18,12.46,9.91,23.78a16.24,16.24,0,0,1-8.31,15.7l5.64,18.79s3,9.57-9.23,11.61A21,21,0,0,1,114,179.13L102.29,145s11-11.67,6.16-23.71C108.45,121.29,126.59,124.2,135.26,116.14Z"/><path class="cls-3" d="M129.71,186.87a22.05,22.05,0,0,1-16.18-7.41.56.56,0,0,1-.09-.17l-11.68-34.13a.57.57,0,0,1,0-.29.6.6,0,0,1,.14-.26c.11-.12,10.72-11.56,6-23.12a.67.67,0,0,1,0-.28.57.57,0,0,1,.35-.44.57.57,0,0,1,.29,0c.17,0,18,2.77,26.34-5a.58.58,0,0,1,.43-.15.81.81,0,0,1,.22.07.61.61,0,0,1,.17.15c.38.52,9.29,12.72,10,24.08a16.92,16.92,0,0,1-8.2,16l5.5,18.35a9.66,9.66,0,0,1,.28,3.78,9.78,9.78,0,0,1-1.21,3.6c-1.59,2.57-4.53,4.24-8.75,4.94A22.17,22.17,0,0,1,129.71,186.87Zm-15.25-8.06a20.75,20.75,0,0,0,18.72,6.61c3.87-.65,6.6-2.14,8-4.41a8.85,8.85,0,0,0,.84-6.49l-5.64-18.79a.53.53,0,0,1,0-.37.61.61,0,0,1,.27-.28,15.52,15.52,0,0,0,8-15.16c-.64-9.78-7.8-20.58-9.47-23-7.85,6.71-22.08,5.5-25.88,5,3.75,11-4.85,21.43-6.38,23.12Z"/><path class="cls-2" d="M108,140.62s-9.71-11.29-13.78-1.1,8.17,16.32,13.73,13.81"/><path class="cls-3" d="M105.08,154.45a13.59,13.59,0,0,1-8.92-3.74,9.91,9.91,0,0,1-2.38-11.4c1.1-2.68,2.62-4.2,4.62-4.54,4.63-.77,9.91,5.23,10.08,5.51a.53.53,0,0,1,.13.4.56.56,0,0,1-.19.38.57.57,0,0,1-.18.12.49.49,0,0,1-.21,0,.52.52,0,0,1-.21,0,.66.66,0,0,1-.17-.12c0-.07-5-5.78-9.06-5.12-1.6.26-2.88,1.56-3.79,3.85A8.82,8.82,0,0,0,96.92,150c3,2.92,7.92,4.21,10.86,2.89a.56.56,0,0,1,.73.28.72.72,0,0,1,0,.21.52.52,0,0,1,0,.21.42.42,0,0,1-.11.18.46.46,0,0,1-.18.13A7.88,7.88,0,0,1,105.08,154.45Z"/><path class="cls-3" d="M127.65,141.87a.54.54,0,0,1-.38-.15.58.58,0,0,1-.17-.38.54.54,0,0,1,.16-.39.53.53,0,0,1,.38-.18s4-.14,5.63-1.67a.22.22,0,0,0,0-.08.25.25,0,0,0,0-.08c-.11-1.55-5.14-5.79-8.3-8.1a.55.55,0,0,1-.22-.36.6.6,0,0,1,.09-.41.75.75,0,0,1,.16-.15.68.68,0,0,1,.2-.07.54.54,0,0,1,.22,0,.72.72,0,0,1,.2.09c1.43,1.05,8.57,6.41,8.8,8.92a1.16,1.16,0,0,1-.07.55,1.26,1.26,0,0,1-.3.46c-1.88,1.84-6.18,2-6.35,2Z"/><path class="cls-3" d="M136.88,155.62s-9.65,4.28-15.84,4.53c0,0,10.72,12.9,20.22,9.91Z"/><path class="cls-3" d="M138.3,171.1c-8.81,0-17.29-10.11-17.69-10.6a.57.57,0,0,1-.13-.27.6.6,0,0,1,0-.3.55.55,0,0,1,.2-.23.48.48,0,0,1,.28-.1c6-.24,15.55-4.41,15.65-4.48a.59.59,0,0,1,.22-.05.59.59,0,0,1,.23.05.62.62,0,0,1,.19.14.55.55,0,0,1,.11.2l4.4,14.48a.56.56,0,0,1,0,.42.57.57,0,0,1-.32.27A10.19,10.19,0,0,1,138.3,171.1Zm-16.11-10.48c2.48,2.68,10.85,10.95,18.39,9.11l-4-13.36C134.45,157.24,127.52,160.09,122.19,160.62Z"/><path class="cls-3" d="M118.85,135.59c.79-.29,1-1.66.52-3.06s-1.56-2.3-2.35-2-1,1.66-.53,3.06S118.05,135.88,118.85,135.59Z"/><path class="cls-2" d="M89.05,163.11c2.9,11.15,8.66,31.55,24.36,20.85a15.44,15.44,0,0,0,6.36-9.62c1.41-7.07-10.45-12.69-16-15.17"/><path class="cls-3" d="M105.2,187.52a9.35,9.35,0,0,1-3.3-.6c-8-3-11.49-16.44-13.38-23.68a.59.59,0,0,1,.07-.43.58.58,0,0,1,.35-.26.59.59,0,0,1,.43.07.53.53,0,0,1,.25.35c1.7,6.54,5.25,20.12,12.7,22.92,3.13,1.18,6.77.37,10.82-2.39a14.8,14.8,0,0,0,6.13-9.27c1.38-6.91-11.45-12.67-15.66-14.55a.62.62,0,0,1-.29-.31.61.61,0,0,1,0-.42.57.57,0,0,1,.12-.18.76.76,0,0,1,.19-.12.49.49,0,0,1,.21,0,.52.52,0,0,1,.21,0c7.71,3.44,17.68,8.81,16.29,15.79a15.89,15.89,0,0,1-6.6,10A15.33,15.33,0,0,1,105.2,187.52Z"/><path class="cls-3" d="M128.25,152.83a13.46,13.46,0,0,1-2.45-.23c-8-1.48-7.48-7.81-7.47-7.86a.53.53,0,0,1,.17-.36.55.55,0,0,1,.37-.14h17.45a.52.52,0,0,1,.21,0,.46.46,0,0,1,.18.13.55.55,0,0,1,.16.38,8.57,8.57,0,0,1-.82,3.37,8.46,8.46,0,0,1-2.12,2.74A8.81,8.81,0,0,1,128.25,152.83Zm-8.81-7.49c.07,1.37.79,5.11,6.6,6.18a8.65,8.65,0,0,0,7.24-1.42,7.3,7.3,0,0,0,2.51-4.72Z"/><path class="cls-3" d="M129.94,130.37h-.17a.59.59,0,0,1-.32-.28.61.61,0,0,1,0-.42,6.48,6.48,0,0,1,3.12-3.57,4.94,4.94,0,0,1,2-.36,4.8,4.8,0,0,1,2,.52.55.55,0,0,1,.25.31.53.53,0,0,1,0,.39.57.57,0,0,1-.27.28.55.55,0,0,1-.4,0,3.82,3.82,0,0,0-1.52-.41,3.65,3.65,0,0,0-1.57.25,5.48,5.48,0,0,0-2.52,2.94.54.54,0,0,1-.21.24A.56.56,0,0,1,129.94,130.37Z"/><path class="cls-2" d="M23.56,221.58c-12.51,8-28.13-7.29-21.39-27.14S56.11,127,56.11,127s-4-11.22-.39-15.41,10.47-1.92,10.47-1.92,4.07-18.11,7.7-16.79S71.5,111.6,71.5,111.6s9.67-19.17,12.11-15.48S76.42,114,76.42,114s5.82-.75,2.26,7.5a27,27,0,0,1-10.83,12.11S36.05,213.62,23.56,221.58Z"/><path class="cls-3" d="M16.42,224.3a14.19,14.19,0,0,1-8.8-3.2c-5.92-4.66-10.08-14.77-6-26.88C8.17,175,51.47,130.91,55.52,126.81c-.65-2-3.61-11.61-.19-15.65,3.18-3.77,8.64-2.71,10.44-2.21.71-3,3.63-14.74,6.8-16.51a1.69,1.69,0,0,1,.73-.23,1.64,1.64,0,0,1,.76.09c2.69,1,1.21,8.35-.33,13.86,2.72-4.81,6.6-11,9-11.13a1.38,1.38,0,0,1,.77.17,1.35,1.35,0,0,1,.57.54c2.28,3.47-4.48,14.39-6.6,17.72a3.28,3.28,0,0,1,2.2,1.23c1.1,1.41.89,3.77-.52,7a27.28,27.28,0,0,1-11,12.36c-2.63,7.27-32.33,80.31-44.3,87.94A13.77,13.77,0,0,1,16.42,224.3ZM62,109.58a7.26,7.26,0,0,0-3.16.52,7.17,7.17,0,0,0-2.64,1.81c-3.31,3.93.45,14.79.49,14.9a.55.55,0,0,1,0,.31.53.53,0,0,1-.15.26c-.46.48-47.22,47.74-53.85,67.24-3.92,11.56,0,21.19,5.63,25.61a12.51,12.51,0,0,0,15,.89c12.11-7.71,43.74-86.85,44-87.63a.5.5,0,0,1,.25-.3,26.64,26.64,0,0,0,10.59-11.86c1.21-2.82,1.43-4.86.64-5.91a2.67,2.67,0,0,0-1.06-.69,2.8,2.8,0,0,0-1.25-.14.55.55,0,0,1-.31,0,.52.52,0,0,1-.23-.21.55.55,0,0,1,0-.6c2.62-3.87,9-14.54,7.19-17.32-.14-.22-.28-.23-.37-.22-2.2.13-7.76,9.67-10.77,15.66a.57.57,0,0,1-.31.26.51.51,0,0,1-.4,0,.45.45,0,0,1-.17-.11.38.38,0,0,1-.12-.16.54.54,0,0,1,0-.21.69.69,0,0,1,0-.2c4-11.65,4-17.61,2.72-18a.51.51,0,0,0-.3,0,.57.57,0,0,0-.28.11c-2.54,1.38-5.51,12.24-6.39,16.31a.41.41,0,0,1-.1.21.39.39,0,0,1-.17.14.44.44,0,0,1-.22,0,.42.42,0,0,1-.22,0A14.11,14.11,0,0,0,62,109.58Z"/><path class="cls-2" d="M19.32,73.72,45.11,298.5l172.14-19.76L191.46,54Zm175,131.58L50.84,221.75,35.56,88.53,179,72Z"/><path class="cls-3" d="M45.11,299.05a.55.55,0,0,1-.34-.13.44.44,0,0,1-.14-.16.68.68,0,0,1-.07-.2L18.78,73.79a.55.55,0,0,1,0-.22.66.66,0,0,1,.09-.19.58.58,0,0,1,.17-.14.48.48,0,0,1,.2-.07L191.4,53.42a.58.58,0,0,1,.4.12.52.52,0,0,1,.14.16.42.42,0,0,1,.06.21l25.8,224.78a.58.58,0,0,1-.12.4.53.53,0,0,1-.37.2L45.17,299.05ZM20,74.22,45.6,297.89l171-19.63L191,54.58Zm30.9,148.1a.59.59,0,0,1-.37-.14.57.57,0,0,1-.18-.34L35,88.62a.49.49,0,0,1,.12-.4A.54.54,0,0,1,35.5,88L178.93,71.5a.54.54,0,0,1,.22,0,.59.59,0,0,1,.19.11.46.46,0,0,1,.17.17.48.48,0,0,1,.07.23l15.29,133.21a.6.6,0,0,1-.12.41.57.57,0,0,1-.37.2L50.9,222.31ZM36.17,89.1,51.33,221.22l142.35-16.34L178.48,72.71Z"/><path class="cls-4" d="M66,231.81a4.32,4.32,0,0,1,.22-.43,5.72,5.72,0,0,1,2.11-2.2,4.89,4.89,0,0,1,2.3-.65,4.81,4.81,0,0,1,4.86,3.58,9.11,9.11,0,0,1,.22,1.95,8,8,0,0,1-.19,1.88,7.39,7.39,0,0,1-1.26,2.71A24.58,24.58,0,0,1,72.3,241l-3.59,4c-.34.38-.67.79-1,1.19l-.06.07-.34-.27c-1.43-1.1-2.9-2.08-4.41-3.08-1-.66-1.91-1.31-2.83-2a10,10,0,0,1-1.79-1.77,7.22,7.22,0,0,1-1.18-2.39,10.06,10.06,0,0,1-.34-2,4.71,4.71,0,0,1,.6-2.77A4.66,4.66,0,0,1,59.42,230a4.91,4.91,0,0,1,5.4.65,5.53,5.53,0,0,1,1,1Z"/><path class="cls-5" d="M100.69,242.9h-.23l-3.41-1.57a11.45,11.45,0,0,1-3.57,1,10.49,10.49,0,0,1-7.09-1.64,7.6,7.6,0,0,1-2.42-2.4,7.62,7.62,0,0,1,1-9.48,10.91,10.91,0,0,1,13.63-1.6,7.87,7.87,0,0,1,3.55,5.62,7.74,7.74,0,0,1-1.43,5.33l.46,4.09a.57.57,0,0,1,0,.29.58.58,0,0,1-.18.23A.62.62,0,0,1,100.69,242.9ZM97,240.12a.43.43,0,0,1,.22.06l2.78,1.26-.39-3.3a.57.57,0,0,1,.11-.38,6.44,6.44,0,0,0,.35-7.49A6.81,6.81,0,0,0,98,228.2a9.79,9.79,0,0,0-12.21,1.41,6.41,6.41,0,0,0-1.56,2.47,6.58,6.58,0,0,0-.33,2.92A6.51,6.51,0,0,0,87,239.81a9.41,9.41,0,0,0,6.34,1.46,9.67,9.67,0,0,0,3.44-1A.47.47,0,0,1,97,240.12Z"/><path class="cls-5" d="M118.69,239.94a.6.6,0,0,1-.32-.12.61.61,0,0,1-.19-.28l-2-6.71L108,229.77a.57.57,0,0,1-.26-.2.62.62,0,0,1-.09-.32.51.51,0,0,1,.1-.32.49.49,0,0,1,.26-.19l16.89-6.06a.65.65,0,0,1,.31,0,.61.61,0,0,1,.28.16.53.53,0,0,1,.13.27.65.65,0,0,1,0,.31l-6.47,16.18a.48.48,0,0,1-.18.24A.57.57,0,0,1,118.69,239.94Zm-8.81-10.67,6.93,2.63a.48.48,0,0,1,.2.14.57.57,0,0,1,.13.21l1.65,5.51,5.43-13.59Z"/><path class="cls-5" d="M116.58,233a.55.55,0,0,1-.38-.16.57.57,0,0,1-.12-.18.49.49,0,0,1,0-.21.52.52,0,0,1,0-.21.57.57,0,0,1,.12-.18l8.58-9.2a.57.57,0,0,1,.38-.18.59.59,0,0,1,.4.15.52.52,0,0,1,.17.39.54.54,0,0,1-.15.4L117,232.76a.46.46,0,0,1-.17.14A.63.63,0,0,1,116.58,233Z"/><path class="cls-5" d="M59.58,259.53a.59.59,0,0,1-.37-.14.57.57,0,0,1-.18-.34.56.56,0,0,1,.12-.41.58.58,0,0,1,.36-.21l139-15.94a.54.54,0,0,1,.41.12.53.53,0,0,1,.2.37.55.55,0,0,1-.11.41.62.62,0,0,1-.38.2l-139,15.94Z"/><path class="cls-5" d="M61,272.18a.54.54,0,0,1-.36-.14.57.57,0,0,1-.18-.34.55.55,0,0,1,0-.22.5.5,0,0,1,.1-.19.43.43,0,0,1,.16-.14.48.48,0,0,1,.21-.07l118.26-13.56a.52.52,0,0,1,.41.12.56.56,0,0,1,.09.77.58.58,0,0,1-.38.21L61.09,272.18Z"/><path class="cls-2" d="M223,235.54c-11.52-27.8-16.52-66.41-16.52-66.41s-19.59-3.94-21.06-16.71,16.41-8,16.41-8a51.6,51.6,0,0,0-1.35-11.75c2.61.44,41.27,51.81,47.73,93.58C251.15,245.48,234.52,263.35,223,235.54Z"/><path class="cls-3" d="M236.68,250.45c-5.17,0-10.25-5.2-14.17-14.69-10.8-26.08-15.94-62.06-16.51-66.18a44.4,44.4,0,0,1-9.75-3.53c-6.82-3.46-10.75-8.16-11.38-13.57-.36-3.19.41-5.63,2.28-7.25,4-3.45,11.73-2.06,14.12-1.53a50,50,0,0,0-1.35-10.9.62.62,0,0,1,0-.27.55.55,0,0,1,.12-.24.59.59,0,0,1,.23-.14.53.53,0,0,1,.28,0c2.66.45,41.62,51.74,48.16,94,1.71,11-2.83,22-9.91,24A7.59,7.59,0,0,1,236.68,250.45Zm-13.16-15.12c4.23,10.23,9.7,15.24,15,13.75,6.46-1.8,10.71-12.45,9.11-22.77-6-38.76-39.53-85-46.24-92.19a53.83,53.83,0,0,1,1,10.29.62.62,0,0,1-.07.23.47.47,0,0,1-.15.19.54.54,0,0,1-.23.11.7.7,0,0,1-.25,0c-.09,0-9.61-2.5-13.81,1.1-1.59,1.37-2.2,3.48-1.9,6.29,1.4,12.23,20.44,16.2,20.62,16.23a.51.51,0,0,1,.3.17.49.49,0,0,1,.14.3c0,.39,5.14,38.87,16.52,66.28Z"/><path class="cls-3" d="M62.88,125.39h-.07a.55.55,0,0,1-.37-.22.62.62,0,0,1-.1-.42,6,6,0,0,1,.82-2.39,5.81,5.81,0,0,1,1.74-1.82,7.48,7.48,0,0,1,3.3-1.1,19.15,19.15,0,0,1-3.9-2.71c-.77-.7-1-1.36-.77-2,1-2.2,10.15-1.53,13-1.29a.83.83,0,0,1,.21.06.54.54,0,0,1,.16.14.5.5,0,0,1,.1.19.41.41,0,0,1,0,.22.52.52,0,0,1-.18.37.58.58,0,0,1-.19.1.55.55,0,0,1-.22,0c-6-.54-11.46-.25-11.83.63,0,0,0,.26.49.68a15.75,15.75,0,0,0,6.43,3.62c.68.1,1.1.22,1.19.23A.6.6,0,0,1,73,120a.53.53,0,0,1-.12.73.57.57,0,0,1-.38.11,7.52,7.52,0,0,1-1.24-.23,8.85,8.85,0,0,0-5.76.86A5,5,0,0,0,64.07,123a4.89,4.89,0,0,0-.65,2,.54.54,0,0,1-.18.33A.59.59,0,0,1,62.88,125.39Z"/><path class="cls-5" d="M167.47,102.92a.49.49,0,0,1-.36-.13l-.23-.23c-1.1-1.1-2.2-2.09-3.18-3.06l-.15-.12c-.66-.62-1.33-1.25-2-1.93a9.23,9.23,0,0,1-1.34-1.78,6.55,6.55,0,0,1-.73-2.32,8.63,8.63,0,0,1,0-1.76,4.4,4.4,0,0,1,3.18-4,4.52,4.52,0,0,1,2.65-.07,4.63,4.63,0,0,1,2.26,1.41,4.31,4.31,0,0,1,.39.46A5.1,5.1,0,0,1,170,88a4.71,4.71,0,0,1,2.2-.29,4.52,4.52,0,0,1,4,4,8.53,8.53,0,0,1,0,1.75,8,8,0,0,1-.42,1.67,7.1,7.1,0,0,1-1.48,2.2,21.43,21.43,0,0,1-1.94,1.75L169,101.89l-.66.57-.32.27a.61.61,0,0,1-.24.15A.53.53,0,0,1,167.47,102.92Zm-3.3-14.45a4.25,4.25,0,0,0-1.17.17,3.41,3.41,0,0,0-1.66,1.15,3.26,3.26,0,0,0-.71,1.89,6.61,6.61,0,0,0,0,1.54,5.25,5.25,0,0,0,.6,1.92,7.81,7.81,0,0,0,1.18,1.56c.59.65,1.27,1.27,1.9,1.86l.15.13c1,.94,2.06,1.93,3.08,3l.67-.57,3.43-2.82a18.14,18.14,0,0,0,1.84-1.66,5.81,5.81,0,0,0,1.26-1.88,6.11,6.11,0,0,0,.35-1.4,7.41,7.41,0,0,0,.06-1.49,3.57,3.57,0,0,0-.86-1.95,3.41,3.41,0,0,0-2.2-1.1,3.55,3.55,0,0,0-1.71.21,4.06,4.06,0,0,0-1.81,1.39l-.16.22-.07.09a.55.55,0,0,1-.2.17.58.58,0,0,1-.26.06.52.52,0,0,1-.25-.07.7.7,0,0,1-.2-.18l.47-.3-.47.27a5.16,5.16,0,0,0-.68-.93,3.79,3.79,0,0,0-1.2-.9,3.66,3.66,0,0,0-1.46-.33Zm3.3,1.57.45.32Z"/><path class="cls-5" d="M161.16,127.64h-.09a2,2,0,0,1-.86-.23,1.81,1.81,0,0,1-.66-.6.53.53,0,0,1-.1-.4.6.6,0,0,1,.22-.36.54.54,0,0,1,.41-.09.58.58,0,0,1,.36.21.69.69,0,0,0,.29.27.83.83,0,0,0,.38.1h0a3.89,3.89,0,0,0,2.46-1.42,27.92,27.92,0,0,0,6.51-19.66.5.5,0,0,1,0-.21.72.72,0,0,1,.11-.19.7.7,0,0,1,.17-.13.54.54,0,0,1,.22-.05.55.55,0,0,1,.58.51,29.12,29.12,0,0,1-6.76,20.43A5,5,0,0,1,161.16,127.64Z"/></g></g></svg>