<?xml version="1.0" encoding="utf-8"?>
<!-- Generator: Adobe Illustrator 25.2.1, SVG Export Plug-In . SVG Version: 6.00 Build 0)  -->
<svg version="1.1" id="_x34_57bf273-24a3-4fd8-a857-e9b918267d6a"
	 xmlns="http://www.w3.org/2000/svg" xmlns:xlink="http://www.w3.org/1999/xlink" x="0px" y="0px" viewBox="0 0 698 698"
	 style="enable-background:new 0 0 698 698;" xml:space="preserve">
<style type="text/css">
	.st0{display:none;opacity:0.5;}
	.st1{display:inline;fill:url(#SVGID_1_);}
	.st2{display:none;fill:#F5F5F5;}
	.st3{fill:#07ADEF;}
	.st4{fill:#333333;}
	.st5{opacity:0.1;enable-background:new    ;}
	.st6{fill:#FDB797;}
	.st7{opacity:0.1;fill:#07ADEF;enable-background:new    ;}
	.st8{fill:#F4F4F4;}
</style>
<g class="st0">
	
		<linearGradient id="SVGID_1_" gradientUnits="userSpaceOnUse" x1="349" y1="2" x2="349" y2="700" gradientTransform="matrix(1 0 0 -1 0 700)">
		<stop  offset="0" style="stop-color:#808080;stop-opacity:0.25"/>
		<stop  offset="0.54" style="stop-color:#808080;stop-opacity:0.12"/>
		<stop  offset="1" style="stop-color:#808080;stop-opacity:0.1"/>
	</linearGradient>
	<circle class="st1" cx="349" cy="349" r="349"/>
</g>
<circle class="st2" cx="349.7" cy="346.8" r="341.6"/>
<path class="st3" d="M350,689.8c66.8,0.1,132.1-19.4,187.8-56.2c-12.6-68.8-60.5-72.7-60.5-72.7H213.1c0,0-45.2,3.7-59.3,67
	C211.2,668.3,279.8,689.9,350,689.8z"/>
<circle class="st4" cx="346.4" cy="339.6" r="164.9"/>
<path class="st5" d="M293.1,476.9h105.7l0,0v84.5c0,29.2-23.6,52.8-52.8,52.8l0,0c-29.2,0-52.8-23.7-52.8-52.8c0,0,0,0,0,0
	L293.1,476.9L293.1,476.9L293.1,476.9z"/>
<path class="st6" d="M296.5,473h99c1.9,0,3.4,1.5,3.4,3.4l0,0v81.2c0,29.2-23.6,52.8-52.8,52.8c0,0,0,0,0,0l0,0
	c-29.2,0-52.8-23.7-52.8-52.8c0,0,0,0,0,0v-81.2C293.2,474.5,294.7,473,296.5,473z"/>
<path class="st5" d="M293.3,516.8c34.1,12.7,71.5,12.8,105.7,0.3v-13H293.3V516.8z"/>
<circle class="st6" cx="346.4" cy="372.4" r="151.5"/>
<path class="st5" d="M238.5,234.7c0,0,63.8,129.6,243.9,54.3l-41.9-65.7l-74.3-26.7L238.5,234.7z"/>
<path class="st4" d="M238.5,232.8c0,0,63.8,129.6,243.9,54.3l-41.9-65.7l-74.3-26.7L238.5,232.8z"/>
<path class="st4" d="M237.9,224c4.3-13.3,11.7-25.4,21.7-35.3c29.8-29.5,78.6-35.7,103.7-69.2c6,9.3,1.4,23.6-9,27.6
	c24-0.2,51.8-2.3,65.4-22c6.8,15.9,3.9,34.4-7.6,47.4c21.3,1,44,15.4,45.3,36.6c0.9,14.2-8,27.6-19.6,35.7s-25.7,11.9-39.6,14.9
	C357.9,268.7,211.5,306.1,237.9,224z"/>
<ellipse class="st6" cx="194.9" cy="372.3" rx="14.1" ry="26.4"/>
<ellipse class="st6" cx="497.8" cy="372.3" rx="14.1" ry="26.4"/>
<path class="st7" d="M604,428.8c-33.9-29.3-32.2-68-15.2-102.1s47.7-65.5,69.3-98.8c18.1-27.7,29.9-56.8,35-86.5
	c7.2-42.1-2.8-88.9-57.4-117.5c-60.8-31.8-169.6-28-224.6,8c-28,18.3-41.5,42-63.2,62.7c-21.7,20.8-58,40.2-100.5,39
	c-39.4-1.1-69.7-19.5-88.9-38.7c-14.8-14.8-31-33.1-61.3-34.6c-29.3-1.3-52.1,14.5-65,29.5c-42,49-40.8,108.7,3,156.4
	c15.7,17,36.4,32.6,48.7,50.5c32.2,47,1.1,99.7-9.9,150c-9.3,42.8-3.6,86.2,16.5,127.3c12.1,24.7,30.5,49.4,64.3,66.5
	c24.4,12.3,55.2,19.7,85.6,26.7c32.4,7.5,65.1,14.6,97.9,21.4c19.7,4.1,39.8,8.1,60.9,9c38.2,1.6,75.8-7.5,107.8-19.6
	c76.1-28.7,129.3-76.1,142.3-126.8s-14.3-104-73.2-142.4"/>
<path class="st8" d="M244.8,660.6c-3,0.6-2-3.2-3.2-5.4c-1.5-2.9-3.3-4.3-3.2-7.6c0.5-8.8,18.1-15.8,25.2-10.5
	c3.3,2.5,3.2,5.5,3.9,9.4c0.6,3,3.9,7.2,0.2,8c-2.6,0.5-2.5-3.2-5.1-2.8c-4,0.5,0.7,8.2-3.2,8.5c-3.5,0.2-0.4-6.9-3.9-6.3
	c-3.5,0.6,0.2,6.7-3.3,7.5c-3.8,1-0.9-8.2-4.5-6.6C245.2,655.9,247.6,660.1,244.8,660.6z"/>
</svg>
