<svg xmlns="http://www.w3.org/2000/svg" viewBox="0 0 1077.87 818.14"><defs><style>.cls-1,.cls-3{fill:#07adef;}.cls-1,.cls-10,.cls-5{opacity:0.1;}.cls-1,.cls-10,.cls-4,.cls-5,.cls-8{isolation:isolate;}.cls-2{fill:#d4d5e0;}.cls-4,.cls-8{fill:#fff;}.cls-4{opacity:0.2;}.cls-12,.cls-5{fill:#6c63ff;}.cls-6{fill:#53425a;}.cls-7{fill:#ffc13d;}.cls-8{opacity:0.5;}.cls-9{fill:#c99398;}.cls-11{fill:#f8f8fa;}</style></defs><g id="Capa_2" data-name="Capa 2"><g id="b1da7443-2b43-4a55-9b6b-835488f8f109"><path class="cls-1" d="M663.82,91.84C617.57,124.23,557.58,122.13,505,105.28S404.15,58.44,352.93,37.12A494.11,494.11,0,0,0,219.32,2.28C154-5.19,81.14,3.91,35.65,56.26c-50.65,58.3-46.76,163.45,8,217,27.86,27.22,64.35,40.58,96.17,61.84s61.28,56.54,58.57,97.57c-2.51,38-31.68,67.12-61.86,85.4-23.33,14.13-52.06,29.57-54.88,58.83C79,605.2,103.12,627.39,126.19,640c75.26,41.17,168,40.77,243-1,26.76-14.92,51.34-34.76,79.4-46.38,73.65-30.53,154.8.2,232.79,11.44a465.41,465.41,0,0,0,198-14.42c38.63-11.4,77.39-28.84,104.53-61.33,19.56-23.43,31.75-53.08,43.19-82.36q18.32-46.85,35.19-94.34c6.76-19,13.41-38.38,15.15-58.71,3.17-36.86-10.15-73.29-28.3-104.39C1006,114.64,933.49,62.71,855,49.52S693.26,62.09,632.33,118.47"/><path class="cls-2" d="M908.14,538.05l-2.79-1.61c2.61-4.51-4.39-23.69-10.16-33.35-4-6.7-6.52-12.79-7.68-18.62-1.86-9.28-.1-17.33,5.23-23.92,11-13.68,11-39.78,11-40l3.22,0c0,1.11.11,27.51-11.67,42.09-7.82,9.69-6.91,22.77,2.71,38.87C902.49,509,912.18,531.06,908.14,538.05Z"/><path class="cls-3" d="M943.41,392.73c.73-26.15-16.47-47.85-38.41-48.46s-40.33,20.09-41.06,46.24c-.71,25.39,15.48,46.58,36.51,48.36a13.89,13.89,0,0,1-3.26,7.15c-3.19,3.25,10,.28,10,.28a23.47,23.47,0,0,1-1.42-7.41C926.19,437.38,942.72,417.5,943.41,392.73Z"/><path class="cls-4" d="M875.51,410.19c-3.25-9.95-.25-19.95,6.69-22.95-.32.08-.64.16-1,.27-7.6,2.48-11,12.91-7.62,23.3,3.3,10.08,11.79,16.41,19.24,14.5C893,426.1,878.8,420.26,875.51,410.19Z"/><path class="cls-2" d="M924.64,574.29l3.21.13c.22-5.2,16.42-17.63,26.47-22.68a59,59,0,0,0,16.48-11.59c6.55-6.84,9.38-14.58,8.42-23-2-17.46,12.11-39.44,12.26-39.66l-2.71-1.75c-.6.94-14.86,23.15-12.74,41.78,1.4,12.38-6.39,22.92-23.15,31.34C945,552.83,925,566.22,924.64,574.29Z"/><path class="cls-3" d="M972.86,432.74c13.42-22.46,39.58-31.54,58.43-20.28s23.25,38.6,9.83,61.06c-13,21.8-38.07,31-56.77,21.2a13.87,13.87,0,0,0-1.08,7.78c.94,4.46-8.62-5.14-8.62-5.14a23.5,23.5,0,0,0,5.18-5.49C963.43,479.66,960.15,454,972.86,432.74Z"/><path class="cls-4" d="M1020.79,483.91c8.08-6.65,10.92-16.69,6.67-23,.23.23.45.48.67.74,5.08,6.17,2.36,16.8-6.08,23.74-8.19,6.74-18.76,7.53-24,1.92C997.48,487.94,1012.61,490.64,1020.79,483.91Z"/><path class="cls-2" d="M351.82,702.25l-3.22.13c-.22-5.2-16.41-17.63-26.47-22.68-7-3.5-12.36-7.29-16.47-11.59-6.55-6.84-9.38-14.57-8.43-23,2-17.47-12.11-39.45-12.25-39.67l2.7-1.75c.61.94,14.87,23.16,12.75,41.78-1.4,12.38,6.39,22.92,23.15,31.35C331.48,680.79,351.48,694.18,351.82,702.25Z"/><path class="cls-3" d="M303.59,560.7c-13.42-22.46-39.57-31.54-58.42-20.28s-23.25,38.6-9.83,61.06c13,21.81,38.07,31,56.76,21.2a13.9,13.9,0,0,1,1.09,7.79c-.94,4.45,8.61-5.15,8.61-5.15a23.61,23.61,0,0,1-5.17-5.48C313,607.62,316.3,582,303.59,560.7Z"/><path class="cls-4" d="M256.54,613.7c-8.08-6.65-10.91-16.69-6.67-23-.23.24-.45.48-.66.74-5.08,6.17-2.36,16.8,6.07,23.75,8.19,6.74,18.76,7.52,24,1.91C279.85,617.74,264.72,620.43,256.54,613.7Z"/><path class="cls-2" d="M458.7,366.08l-3.22.13c-.22-5.2-16.41-17.63-26.47-22.68a59,59,0,0,1-16.48-11.59c-6.54-6.84-9.38-14.57-8.42-23,2-17.47-12.11-39.45-12.25-39.67l2.7-1.75c.61.94,14.86,23.16,12.75,41.78-1.41,12.38,6.38,22.92,23.15,31.35C438.36,344.62,458.36,358,458.7,366.08Z"/><path class="cls-3" d="M410.47,224.53C397.05,202.07,370.89,193,352,204.25s-23.24,38.6-9.82,61.06c13,21.81,38.06,31,56.76,21.2a14,14,0,0,1,1.09,7.79c-.95,4.45,8.61-5.15,8.61-5.15a23.65,23.65,0,0,1-5.18-5.48C419.9,271.45,423.18,245.8,410.47,224.53Z"/><path class="cls-4" d="M362.54,275.7c-8.08-6.65-10.91-16.69-6.67-22.95-.23.24-.45.48-.66.74-5.08,6.17-2.36,16.8,6.07,23.75,8.19,6.74,18.76,7.52,24,1.91C385.85,279.74,370.72,282.43,362.54,275.7Z"/><path class="cls-2" d="M421.7,509.08l-3.22.13c-.22-5.2-16.41-17.63-26.47-22.68a59,59,0,0,1-16.48-11.59c-6.54-6.84-9.38-14.57-8.42-23,2-17.47-12.11-39.45-12.25-39.67l2.7-1.75c.61.94,14.86,23.16,12.75,41.78-1.41,12.38,6.38,22.92,23.15,31.35C401.36,487.62,421.36,501,421.7,509.08Z"/><path class="cls-3" d="M373.47,367.53C360.05,345.07,333.89,336,315,347.25s-23.24,38.6-9.82,61.06c13,21.81,38.06,31,56.76,21.2a14,14,0,0,1,1.09,7.79c-.95,4.45,8.61-5.15,8.61-5.15a23.65,23.65,0,0,1-5.18-5.48C382.9,414.45,386.18,388.8,373.47,367.53Z"/><path class="cls-4" d="M325.54,418.7c-8.08-6.65-10.91-16.69-6.67-22.95-.23.24-.45.48-.66.74-5.08,6.17-2.36,16.8,6.07,23.75,8.19,6.74,18.76,7.52,24,1.91C348.85,422.74,333.72,425.43,325.54,418.7Z"/><path class="cls-2" d="M865.63,698.32l-2-2.48c4-3.31,4.21-23.72,2.2-34.79-1.4-7.68-1.61-14.27-.65-20.14,1.52-9.34,6-16.26,13.3-20.56,15.15-8.92,24.23-33.39,24.32-33.64l3,1.1c-.39,1.05-9.56,25.8-25.71,35.32C869.34,629.45,865.6,642,869,660.47,870.54,669.17,871.87,693.2,865.63,698.32Z"/><path class="cls-3" d="M949.71,574.66c9.87-24.23,1.4-50.58-18.94-58.87s-44.81,4.64-54.69,28.87c-9.58,23.52-1.87,49.05,17.2,58.1a13.82,13.82,0,0,1-5.56,5.55c-4.13,1.93,9.29,3.79,9.29,3.79a23.57,23.57,0,0,1,1.26-7.44C917.9,610.42,940.36,597.61,949.71,574.66Z"/><path class="cls-4" d="M880,567.15c.46-10.46,6.77-18.76,14.33-19.13a8.28,8.28,0,0,0-1-.09c-8-.35-14.85,8.22-15.32,19.14-.46,10.59,5.27,19.51,12.91,20.33C890.8,588.2,879.54,577.73,880,567.15Z"/><ellipse class="cls-5" cx="605.48" cy="706.71" rx="302.44" ry="22.48"/><polygon class="cls-6" points="580.01 121.17 580.01 156.5 583.71 156.5 583.71 119.46 580.01 121.17"/><polygon class="cls-6" points="655.79 130.57 655.79 163.33 660.92 163.33 659.78 126.86 655.79 130.57"/><polygon class="cls-6" points="509.92 136.84 506.5 140.54 506.5 172.45 509.92 172.45 509.92 136.84"/><path class="cls-3" d="M524.16,230.85H501.94V167H519a8.85,8.85,0,0,0-.4,1.51c-.66,3.67-.46,10.59.17,18.51C520.29,206.05,524.16,230.85,524.16,230.85Z"/><path class="cls-3" d="M601.66,230.85l-27.92,3.42V151.08h17.67c-.12.94-.2,2-.24,3.2a138.7,138.7,0,0,0,1.1,18.78c.6,5.42,1.38,11.24,2.25,17,.66,4.49,1.38,8.95,2.09,13.2C599.18,218.52,601.66,230.85,601.66,230.85Z"/><path class="cls-3" d="M676.88,222.31l-27.35,2.28V157.92h18.8c-.67,1.42-1,3.81-1,6.86a121.87,121.87,0,0,0,1.47,16.41C671.5,199.87,676.88,222.31,676.88,222.31Z"/><path class="cls-7" d="M514.48,72.16S516.19,79,498.24,97.8s-10.83,56.7,8.26,55.56c0,0,17.85,2.95,24.26-9.2a16.25,16.25,0,0,0-1.13-16.67c-5.9-8.69-17.28-26.95-15.15-35.67Z"/><path class="cls-8" d="M510.87,98s1.07,4.28-10.14,16-6.77,35.41,5.16,34.7c0,0,11.39,1.88,15.28-6a10.18,10.18,0,0,0-.85-10.18c-3.48-5.13-10-15.56-9.6-21.29.07-.9.15-1.79.15-2.69Z"/><path class="cls-7" d="M662.61,63.59s1.71,6.83-16.24,25.64-10.82,56.7,8.27,55.56c0,0,17.84,2.94,24.26-9.21a16.28,16.28,0,0,0-1.14-16.67c-5.9-8.69-17.27-26.94-15.15-35.66Z"/><path class="cls-8" d="M660.35,104.34s.8,3.2-7.6,12-5.07,26.54,3.87,26c0,0,8.35,1.37,11.35-4.31a7.6,7.6,0,0,0-.53-7.8c-2.76-4.07-8.09-12.61-7.09-16.7Z"/><path class="cls-7" d="M587,38.86s2.07,8.31-19.75,31.18S554.12,139,577.34,137.6c0,0,21.7,3.57,29.5-11.2a19.78,19.78,0,0,0-1.38-20.27c-7.18-10.56-21-32.76-18.42-43.37Z"/><path class="cls-8" d="M584.75,80.13s1.16,4.64-11,17.39-7.35,38.47,5.6,37.7c0,0,12.11,2,16.47-6.25a11,11,0,0,0-.78-11.31c-4-5.89-11.72-18.28-10.27-24.19Z"/><path class="cls-8" d="M518.8,187.06c-5.22,5.49-12.43,15.33-16.86,21.56V186.08a240.53,240.53,0,0,1,16.7-17.53C518,172.22,518.18,179.14,518.8,187.06Z"/><path class="cls-8" d="M592.27,173.06a198.44,198.44,0,0,0-18.53,16.85V168.36a99.17,99.17,0,0,1,17.43-14.08A138.7,138.7,0,0,0,592.27,173.06Z"/><path class="cls-3" d="M596.61,203.28c-6.86,6-16.31,14.57-22.87,20.54V208.39c6.85-6.31,15.24-13.57,20.78-18.31C595.18,194.57,595.9,199,596.61,203.28Z"/><path class="cls-8" d="M668.84,181.19c-6.59,5.53-14.24,13.12-19.31,18.34V178c5.39-5.37,12.54-10.11,17.84-13.25A121.87,121.87,0,0,0,668.84,181.19Z"/><rect class="cls-9" x="453.79" y="246.24" width="278.92" height="127.65"/><path class="cls-10" d="M732.72,246.24v19.21c-5.34,1-12.33-.56-18.18-2.52a24.2,24.2,0,0,0-20.91,2.64c-16.07,10.5-28.62,8.28-37.37,3.06a32.16,32.16,0,0,0-29.13-2.25,31.55,31.55,0,0,1-12.91,2.36,27.36,27.36,0,0,0-14.66,4.05c-13.2,8-26.35,3.37-34.62-1.46a24.41,24.41,0,0,0-17.89-2.59,25.64,25.64,0,0,1-7.95.65,29.8,29.8,0,0,0-17.56,3.79c-21.79,12.73-29-2.73-33.27-5-4.85-2.56-5.41,6.27-6.84,6.27s-6.27-11.68-7.41-7.7c-.53,1.88-5,4.12-9.64,6a19.25,19.25,0,0,1-10.59,1.09V246.24Z"/><path class="cls-11" d="M464.91,220.79s-45.72,20.4-21.32,45.89a19,19,0,0,0,20.8,4.35c4.61-1.86,9.1-4.11,9.63-6,1.14-4,6,7.69,7.41,7.69s2-8.83,6.84-6.27c4.29,2.27,11.48,17.73,33.27,5a29.89,29.89,0,0,1,17.56-3.79A25.53,25.53,0,0,0,547,267a24.47,24.47,0,0,1,17.9,2.58c8.27,4.83,21.43,9.46,34.62,1.47A27.27,27.27,0,0,1,614.22,267a31.39,31.39,0,0,0,12.91-2.37,32.25,32.25,0,0,1,29.13,2.25c8.76,5.23,21.31,7.45,37.37-3.05a24.11,24.11,0,0,1,20.9-2.64c11.69,3.91,27.92,6.41,26.45-10.7C738.7,224,707.36,216.33,694.26,216s-34.76-2.56-59.27,0-74.36,2.28-74.36,2.28S476.91,215,464.91,220.79Z"/><rect class="cls-9" x="396.81" y="373.89" width="397.88" height="156.27"/><path class="cls-10" d="M732.72,347.23v26.66H577.61c-.26,0-.53-.06-.79-.08a20.72,20.72,0,0,0-3.94.08H453.79V350.12c13,1.58,26.06,3.58,39,3.53,17.12-.07,34-3.63,51.19-2.67,60,3.33,121,4.32,180.79-2.78Z"/><path class="cls-10" d="M794.69,373.89V388c-4.33-.55-8.49-2.27-12.67-3.64-3.77-1.23-7.85-2.19-11.68-1.17-2,.54-3.85,1.6-5.84,2.21-8.33,2.6-17-2.81-25.74-2.85s-16.38,5.18-24.83,7.08c-13,2.93-26.39-2.21-38.9-7-5.06-1.92-10.92-3.76-15.65-1.13-2.07,1.15-3.64,3.05-5.66,4.3-5.93,3.66-13.68.8-19.59-2.89-3.73-2.33-8.25-5.08-12.19-3.11-2,1-3.31,3.05-5,4.56-5.33,4.78-13.72,3.5-20.26.59s-12.74-7.19-19.86-7.72c-10.06-.76-18.86,6-27.63,11s-20.93,7.91-28.09.8c-2.36-2.36-4.12-5.76-7.36-6.57-5.35-1.33-9.38,5.3-14.78,6.46-6.66,1.44-12.08-5.65-18.75-7-6.91-1.44-13.34,3.36-19.43,6.91s-14.95,5.54-19.37.05c-1.41-1.76-2.18-4.11-4.11-5.28a8.29,8.29,0,0,0-4.75-.76,48.34,48.34,0,0,0-16.77,4c-6.08,2.69-12,6.71-18.61,6.58h-.36V373.89Z"/><path class="cls-11" d="M492.75,355.36c-30.52.13-62-11.31-90.82-1.13-10.44,3.69-21,12.42-19.93,23.44a16.11,16.11,0,0,0,15.17,14c6.64.12,12.53-3.91,18.61-6.59a48.29,48.29,0,0,1,16.77-4,8.29,8.29,0,0,1,4.75.77c1.93,1.15,2.7,3.52,4.11,5.27,4.42,5.5,13.27,3.5,19.37-.05s12.52-8.36,19.43-6.91c6.67,1.39,12.09,8.48,18.75,7,5.4-1.16,9.42-7.79,14.78-6.45,3.25.8,5,4.2,7.37,6.56,7.14,7.11,19.31,4.17,28.08-.8s17.57-11.74,27.62-11c7.14.54,13.34,4.83,19.87,7.74s14.94,4.18,20.26-.59c1.69-1.52,3-3.56,5-4.57,3.94-2,8.46.78,12.19,3.11,5.91,3.69,13.66,6.55,19.59,2.89,2-1.25,3.59-3.14,5.66-4.3,4.73-2.63,10.6-.79,15.65,1.13,12.5,4.77,25.85,9.92,38.91,7,8.43-1.9,16.17-7.1,24.82-7.07s17.41,5.44,25.74,2.84c2-.62,3.83-1.67,5.84-2.21,3.84-1,7.91-.06,11.68,1.17,5,1.64,10,3.79,15.26,3.81s11-2.86,12.29-8c1-3.91-.92-8-3.26-11.25-8.52-11.91-23.28-18-37.83-19.67s-29.22.65-43.75,2.37C665,357,603.91,356,543.94,352.69,526.79,351.73,509.87,355.29,492.75,355.36Z"/><rect class="cls-9" x="369.89" y="516.05" width="439.94" height="181.2"/><path class="cls-10" d="M811.77,511.09A519.5,519.5,0,0,1,745,521a45.87,45.87,0,0,0-22.51,1.72,3.31,3.31,0,0,0-.41.14c-13.86,4.9-25.8,16.53-40.5,16.35-11.73-.16-21.88-7.91-33.15-11.16a44.68,44.68,0,0,0-16.73-1.42c-13.63.35-27.27.5-40.9.22-20-.4-40-1.73-59.91-3.05l-64-4.23-60.21-4-14.79-1c-5.31-.35-9.25.79-11.39-3.95-2.55-5.68-.3-11.33,2.82-16.27,2.68.05,5.37.24,8,.43q61,4.29,121.93,8.89l-6.25,1.1a682.53,682.53,0,0,1,128.36-7.94c20,.66,40.2,2.2,60.1-.36,14-1.79,27.68-5.59,41.73-6.78,19.3-1.63,38.65,1.7,57.74,5a115.5,115.5,0,0,1,11.93,2.53C808,502.19,809.1,507.07,811.77,511.09Z"/><path class="cls-10" d="M809.82,516.05v17c-5.48-.81-10.86-1.62-14.19,2.28-1.57,1.84-2.17,4.33-3.7,6.21-3.13,3.87-9.26,3.87-13.74,1.67s-7.88-6-11.74-9.21a46.67,46.67,0,0,0-44.33-7.77c-13.86,4.91-25.8,16.54-40.5,16.36-11.73-.16-21.88-7.91-33.15-11.16a44.78,44.78,0,0,0-37.78,6.42c-8,5.67-15.52,14.46-25.24,13.34-5.1-.59-9.38-3.9-13.7-6.66a73,73,0,0,0-28.7-10.64c-4.45-.63-9.18-.82-13.28,1-5.17,2.33-8.51,7.49-13.32,10.51-11.15,7-25.61.69-37.11-5.75s-25.73-13-37.13-6.41c-2.68,1.55-5,3.78-7.82,5-16,7-31.76-20.07-48.2-14.08-3.71,1.35-6.67,4.26-10.32,5.77a12.36,12.36,0,0,1-6,.83V516.05Z"/><path class="cls-11" d="M513.33,505.43q-61-4.59-121.93-8.89c-7.06-.5-14.3-1-21.08,1s-13.12,7.08-14.57,14c-2.2,10.47,10.23,20.8,20.12,16.72,3.65-1.5,6.61-4.42,10.32-5.77,16.44-6,32.18,21.12,48.2,14.08,2.84-1.25,5.14-3.46,7.82-5,11.4-6.62,25.63,0,37.13,6.41s26,12.77,37.12,5.75c4.8-3,8.14-8.18,13.31-10.51,4.11-1.85,8.83-1.66,13.28-1a72.74,72.74,0,0,1,28.7,10.63c4.32,2.76,8.61,6.07,13.7,6.66,9.72,1.13,17.26-7.68,25.24-13.34a44.82,44.82,0,0,1,37.78-6.42c11.27,3.25,21.42,11,33.15,11.16,14.7.19,26.63-11.45,40.5-16.36a46.7,46.7,0,0,1,44.34,7.78c3.85,3.16,7.26,7,11.73,9.2s10.61,2.21,13.75-1.67c1.52-1.87,2.12-4.37,3.69-6.21,6.42-7.5,20.39,2.41,28.17-3.67a10.61,10.61,0,0,0,3.56-5.86c1.95-7.77-2.93-16-9.62-20.38s-14.84-5.89-22.73-7.27c-19.09-3.32-38.43-6.66-57.74-5-14,1.19-27.75,5-41.73,6.78-19.9,2.56-40,1-60.1.36a682.53,682.53,0,0,0-128.36,7.94"/><path class="cls-10" d="M809.82,647.92v42.57q-25.25,1.31-50.52,2.58c-27.2,1.38-54.42,2.77-81.64,2.24-23-.46-46-2.27-69-3-48.36-1.5-96.86,1.88-145.08-2-15.44-1.24-30.83-3.21-46.29-4.09a339.74,339.74,0,0,0-47.43.68V646.8a37.33,37.33,0,0,1,4.36-.1,55.86,55.86,0,0,1,22,5.32c5.39,2.56,10.5,6,16.38,7.05,15.3,2.64,28.6-11.82,44.08-13,12.47-.92,23.68,6.81,34.38,13.28,2.06,1.24,4.35,2.49,6.72,2.14,2-.29,3.61-1.65,5.23-2.84,15.26-11.26,38.52-9.9,52.35,3.09,1.51,1.4,3,3,5,3.5,3.93,1,7.45-2.36,10.56-5,16.86-14.22,42.83-9.94,62.17.65,3.58,2,7.55,4.19,11.51,3.17,2.65-.69,4.69-2.72,6.81-4.46,16.47-13.51,41.24-11,60.52-1.91,1.86.88,3.82,1.83,5.87,1.6,2.45-.29,4.33-2.18,6.22-3.76a31.74,31.74,0,0,1,33.38-4.14c3,1.46,5.86,3.44,9.09,4.43,9.21,2.81,18.56-2.91,27.75-5.81A47.56,47.56,0,0,1,809.82,647.92Z"/><path class="cls-11" d="M856.18,689.84l-96.88,4.94c-27.2,1.38-54.42,2.77-81.64,2.24-23-.46-46-2.27-69-3-48.36-1.5-96.86,1.87-145.08-2-15.44-1.24-30.83-3.21-46.29-4.09a343.2,343.2,0,0,0-52.19,1.1c-3.71.35-9.42,2.21-13,1.48-3.87-.79-2.39-1.23-1.12-4.9.37-1.09.69-2.2.95-3.32,1.06-4.49,1.26-9,1.7-13.68.56-6,1.43-12.49,6.35-16.54,3.88-3.19,9.24-3.84,14.25-3.67a55.86,55.86,0,0,1,22,5.32c5.39,2.56,10.5,6,16.38,7,15.3,2.64,28.6-11.82,44.08-13,12.47-.92,23.68,6.81,34.38,13.28,2.06,1.24,4.35,2.49,6.72,2.14,2-.29,3.61-1.65,5.23-2.84,15.26-11.26,38.52-9.9,52.35,3.09,1.51,1.4,3,3,5,3.5,3.93,1,7.45-2.36,10.56-5,16.86-14.22,42.83-9.94,62.17.65,3.58,2,7.55,4.19,11.51,3.17,2.65-.69,4.69-2.72,6.81-4.46,16.47-13.51,41.24-11,60.52-1.91,1.86.88,3.82,1.83,5.87,1.6,2.45-.29,4.33-2.18,6.22-3.76a31.74,31.74,0,0,1,33.38-4.14c3,1.46,5.86,3.44,9.09,4.43,9.21,2.81,18.56-2.91,27.75-5.81a48,48,0,0,1,60,30.52A45.49,45.49,0,0,1,856.18,689.84Z"/><path class="cls-10" d="M856.18,689.84l-96.88,4.94c-27.2,1.38-54.42,2.77-81.64,2.24-23-.46-46-2.27-69-3-48.36-1.5-96.86,1.87-145.08-2-15.44-1.24-30.83-3.21-46.29-4.09a343.2,343.2,0,0,0-52.19,1.1c-3.71.35-9.42,2.21-13,1.48-3.87-.79-2.39-1.23-1.12-4.9.37-1.09.69-2.2.95-3.32H854.28A45.49,45.49,0,0,1,856.18,689.84Z"/><path class="cls-2" d="M339.48,683.15H861.84a17,17,0,0,1,17,17h0v2.19H322.45v-2.19a17,17,0,0,1,17-17Z"/><rect class="cls-3" x="462.28" y="237.73" width="8.66" height="3.13" rx="1.39" transform="translate(103.23 617.38) rotate(-73.29)"/><rect class="cls-3" x="416.72" y="363.2" width="8.66" height="3.13" rx="1.39" transform="translate(-49.4 663.13) rotate(-73.29)"/><rect class="cls-3" x="367.92" y="508.48" width="8.66" height="3.13" rx="1.39" transform="translate(-223.31 719.89) rotate(-73.29)"/><rect class="cls-3" x="489.94" y="518.13" width="8.66" height="3.13" rx="1.39" transform="translate(-145.62 843.63) rotate(-73.29)"/><rect class="cls-3" x="562.38" y="512.7" width="8.66" height="3.13" rx="1.39" transform="translate(-88.8 909.14) rotate(-73.29)"/><rect class="cls-3" x="664.51" y="523.72" width="8.66" height="3.13" rx="1.39" transform="translate(-26.6 1014.8) rotate(-73.29)"/><rect class="cls-3" x="734.35" y="507.61" width="8.66" height="3.13" rx="1.39" transform="translate(38.58 1070.22) rotate(-73.29)"/><rect class="cls-3" x="427.59" y="514.49" width="8.66" height="3.13" rx="1.39" transform="translate(-186.54 781.32) rotate(-73.29)"/><rect class="cls-3" x="575.68" y="529.12" width="8.66" height="3.13" rx="1.39" transform="translate(-95.06 933.58) rotate(-73.29)"/><rect class="cls-3" x="636.78" y="512.7" width="8.66" height="3.13" rx="1.39" transform="translate(-35.8 980.4) rotate(-73.29)"/><rect class="cls-3" x="765.83" y="507.61" width="8.66" height="3.13" rx="1.39" transform="translate(61.01 1100.37) rotate(-73.29)"/><rect class="cls-12" x="625.23" y="233.24" width="3.13" height="8.66" rx="1.39" transform="translate(64.09 601.83) rotate(-53.67)"/><rect class="cls-3" x="587.18" y="230.4" width="3.13" height="8.66" rx="1.39" transform="translate(50.87 570.01) rotate(-53.67)"/><rect class="cls-3" x="525.4" y="230.4" width="3.13" height="8.66" rx="1.39" transform="translate(25.69 520.24) rotate(-53.67)"/><rect class="cls-3" x="443.09" y="356.23" width="3.13" height="8.66" rx="1.39" transform="translate(-109.23 505.21) rotate(-53.67)"/><rect class="cls-3" x="447.78" y="368.94" width="3.13" height="8.66" rx="1.39" transform="translate(-117.56 514.18) rotate(-53.67)"/><rect class="cls-3" x="549.35" y="357.24" width="3.13" height="8.66" rx="1.39" transform="translate(-66.73 591.23) rotate(-53.67)"/><rect class="cls-3" x="509.06" y="522.67" width="3.13" height="8.66" rx="1.39" transform="translate(-216.44 626.21) rotate(-53.67)"/><rect class="cls-12" x="659.35" y="363.79" width="3.13" height="8.66" rx="1.39" transform="translate(-27.17 682.53) rotate(-53.67)"/><rect class="cls-12" x="704.6" y="369.79" width="3.13" height="8.66" rx="1.39" transform="translate(-13.57 721.43) rotate(-53.67)"/><rect class="cls-3" x="690.91" y="504.85" width="3.13" height="8.66" rx="1.39" transform="translate(-127.96 765.45) rotate(-53.67)"/><rect class="cls-12" x="784.14" y="520.92" width="3.13" height="8.66" rx="1.39" transform="translate(-102.9 847.12) rotate(-53.67)"/><rect class="cls-3" x="467.91" y="511.72" width="3.13" height="8.66" rx="1.39" transform="translate(-224.39 588.6) rotate(-53.67)"/><rect class="cls-3" x="400.02" y="505.72" width="3.13" height="8.66" rx="1.39" transform="translate(-247.23 531.45) rotate(-53.67)"/><rect class="cls-3" x="534.75" y="516.23" width="3.13" height="8.66" rx="1.39" transform="translate(-200.78 644.28) rotate(-53.67)"/><rect class="cls-3" x="607.44" y="511.72" width="3.13" height="8.66" rx="1.39" transform="translate(-167.52 701.01) rotate(-53.67)"/><rect class="cls-3" x="696.34" y="239.86" width="8.66" height="3.13" rx="1.39" transform="translate(-10.6 449.56) rotate(-35.32)"/><rect class="cls-12" x="616.16" y="251.66" width="8.66" height="3.13" rx="1.39" transform="translate(-32.18 405.37) rotate(-35.32)"/><rect class="cls-3" x="483.57" y="367.76" width="8.66" height="3.13" rx="1.39" transform="translate(-123.72 350.08) rotate(-35.32)"/><rect class="cls-3" x="523.66" y="371.7" width="8.66" height="3.13" rx="1.39" transform="translate(-118.62 373.99) rotate(-35.32)"/><rect class="cls-3" x="601.15" y="371.7" width="8.66" height="3.13" rx="1.39" transform="translate(-104.35 418.8) rotate(-35.32)"/><rect class="cls-3" x="625.38" y="363.48" width="8.66" height="3.13" rx="1.39" transform="translate(-95.14 431.29) rotate(-35.32)"/><rect class="cls-12" x="682.73" y="366.55" width="8.66" height="3.13" rx="1.39" transform="translate(-86.36 465.01) rotate(-35.32)"/><rect class="cls-12" x="724.57" y="360" width="8.66" height="3.13" rx="1.39" transform="translate(-74.87 488) rotate(-35.32)"/><rect class="cls-3" x="781.38" y="363.48" width="8.66" height="3.13" rx="1.39" transform="translate(-66.42 521.49) rotate(-35.32)"/><rect class="cls-12" x="607.04" y="231.37" width="8.66" height="3.13" rx="1.39" transform="translate(212.45 751.49) rotate(-73.29)"/><rect class="cls-12" x="654.03" y="229.29" width="8.66" height="3.13" rx="1.39" transform="translate(247.92 795.01) rotate(-73.29)"/><rect class="cls-3" x="589.52" y="248.29" width="8.66" height="3.13" rx="1.39" transform="translate(183.77 746.76) rotate(-73.29)"/><rect class="cls-3" x="497.61" y="251.66" width="8.66" height="3.13" rx="1.39" transform="translate(115.07 661.14) rotate(-73.29)"/><rect class="cls-3" x="661.24" y="244.07" width="8.66" height="3.13" rx="1.39" transform="matrix(0.29, -0.96, 0.96, 0.29, 238.9, 812.45)"/><rect class="cls-3" x="489.94" y="231.37" width="8.66" height="3.13" rx="1.39" transform="translate(129.02 639.33) rotate(-73.29)"/><rect class="cls-3" x="538.21" y="239.86" width="8.66" height="3.13" rx="1.39" transform="translate(155.29 691.62) rotate(-73.29)"/><rect class="cls-3" x="508.72" y="363.2" width="8.66" height="3.13" rx="1.39" transform="translate(16.15 751.25) rotate(-73.29)"/><rect class="cls-3" x="580.85" y="363.2" width="8.66" height="3.13" rx="1.39" transform="translate(67.54 820.33) rotate(-73.29)"/><rect class="cls-3" x="748.31" y="366.55" width="8.66" height="3.13" rx="1.39" transform="translate(183.62 983.1) rotate(-73.29)"/><rect class="cls-3" x="765.84" y="366.55" width="8.66" height="3.13" rx="1.39" transform="translate(196.12 999.89) rotate(-73.29)"/><rect class="cls-3" x="557.49" y="251.66" width="8.66" height="3.13" rx="1.39" transform="translate(157.72 718.48) rotate(-73.29)"/><ellipse class="cls-5" cx="198.97" cy="702.99" rx="28.6" ry="2.9"/><ellipse class="cls-5" cx="122" cy="775.51" rx="28.6" ry="2.9"/><ellipse class="cls-5" cx="907.93" cy="766.81" rx="28.6" ry="2.9"/><ellipse class="cls-5" cx="838.42" cy="797.5" rx="28.6" ry="2.9"/><ellipse class="cls-5" cx="756.21" cy="747.96" rx="28.6" ry="2.9"/><ellipse class="cls-5" cx="626.8" cy="815.24" rx="28.6" ry="2.9"/><path class="cls-2" d="M649.63,509.32l-2-2.48c4-3.31,4.21-23.72,2.2-34.79-1.4-7.68-1.61-14.27-.65-20.14,1.52-9.34,6-16.26,13.3-20.56,15.15-8.92,24.23-33.39,24.32-33.64l3,1.1c-.39,1.05-9.56,25.8-25.71,35.32C653.34,440.45,649.6,453,653,471.47,654.54,480.17,655.87,504.2,649.63,509.32Z"/><path class="cls-3" d="M733.71,385.66c9.87-24.23,1.4-50.58-18.94-58.87s-44.81,4.64-54.69,28.87c-9.58,23.52-1.87,49,17.2,58.1a13.82,13.82,0,0,1-5.56,5.55c-4.13,1.93,9.29,3.79,9.29,3.79a23.57,23.57,0,0,1,1.26-7.44C701.9,421.42,724.36,408.61,733.71,385.66Z"/><path class="cls-4" d="M664,378.15c.46-10.46,6.77-18.76,14.33-19.13a8.28,8.28,0,0,0-1-.09c-8-.35-14.85,8.22-15.32,19.14-.46,10.59,5.27,19.51,12.91,20.33C674.8,399.2,663.54,388.73,664,378.15Z"/><path class="cls-2" d="M772.63,673.32l-2-2.48c4-3.31,4.21-23.72,2.2-34.79-1.4-7.68-1.61-14.27-.65-20.14,1.52-9.34,6-16.26,13.3-20.56,15.15-8.92,24.23-33.39,24.32-33.64l3,1.1c-.39,1.05-9.56,25.8-25.71,35.32C776.34,604.45,772.6,617,776,635.47,777.54,644.17,778.87,668.2,772.63,673.32Z"/><path class="cls-3" d="M856.71,549.66c9.87-24.23,1.4-50.58-18.94-58.87s-44.81,4.64-54.69,28.87c-9.58,23.52-1.87,49.05,17.2,58.1a13.82,13.82,0,0,1-5.56,5.55c-4.13,1.93,9.29,3.79,9.29,3.79a23.57,23.57,0,0,1,1.26-7.44C824.9,585.42,847.36,572.61,856.71,549.66Z"/><path class="cls-4" d="M787,542.15c.46-10.46,6.77-18.76,14.33-19.13a8.28,8.28,0,0,0-1-.09c-8-.35-14.85,8.22-15.32,19.14-.46,10.59,5.27,19.51,12.91,20.33C797.8,563.2,786.54,552.73,787,542.15Z"/><path class="cls-2" d="M584.63,356.32l-2-2.48c4-3.31,4.21-23.72,2.2-34.79-1.4-7.68-1.61-14.27-.65-20.14,1.52-9.34,6-16.26,13.3-20.56,15.15-8.92,24.23-33.39,24.32-33.64l3,1.1c-.39,1.05-9.56,25.8-25.71,35.32C588.34,287.45,584.6,300,588,318.47,589.54,327.17,590.87,351.2,584.63,356.32Z"/><path class="cls-3" d="M668.71,232.66c9.87-24.23,1.4-50.58-18.94-58.87s-44.81,4.64-54.69,28.87c-9.58,23.52-1.87,49.05,17.2,58.1a13.82,13.82,0,0,1-5.56,5.55c-4.13,1.93,9.29,3.79,9.29,3.79a23.57,23.57,0,0,1,1.26-7.44C636.9,268.42,659.36,255.61,668.71,232.66Z"/><path class="cls-4" d="M599,225.15c.46-10.46,6.77-18.76,14.33-19.13a8.28,8.28,0,0,0-1-.09c-8-.35-14.85,8.22-15.32,19.14-.46,10.59,5.27,19.51,12.91,20.33C609.8,246.2,598.54,235.73,599,225.15Z"/><path class="cls-3" d="M112.81,769.87c-3,.6-2-3.21-3.16-5.36-1.46-2.88-3.34-4.29-3.16-7.63.47-8.76,18.11-15.82,25.24-10.47,3.34,2.5,3.18,5.45,3.9,9.39.55,3,3.86,7.19.17,8-2.58.53-2.52-3.17-5.11-2.85-4,.48.73,8.25-3.22,8.53-3.52.24-.37-6.9-3.89-6.31s.21,6.66-3.3,7.54c-3.77,1-.94-8.16-4.52-6.61C113.15,765.19,115.57,769.31,112.81,769.87Z"/><path class="cls-3" d="M747,743.91c-3,.6-2-3.2-3.16-5.36-1.47-2.87-3.34-4.28-3.16-7.62.47-8.77,18.11-15.82,25.24-10.48,3.34,2.51,3.18,5.46,3.9,9.4.54,3,3.86,7.19.17,7.95-2.59.53-2.52-3.17-5.11-2.85-4,.48.72,8.25-3.23,8.52-3.52.25-.36-6.89-3.89-6.31s.22,6.67-3.29,7.55c-3.77.94-.94-8.16-4.52-6.61C747.36,739.23,749.78,743.36,747,743.91Z"/><path class="cls-3" d="M898.74,763.08c-3,.6-2-3.2-3.16-5.36-1.47-2.87-3.34-4.29-3.16-7.62.46-8.77,18.11-15.83,25.23-10.48,3.35,2.51,3.19,5.45,3.91,9.4.54,3,3.86,7.19.16,7.94-2.58.53-2.51-3.16-5.1-2.85-4,.48.72,8.25-3.23,8.53-3.52.24-.36-6.9-3.89-6.31s.22,6.67-3.29,7.55c-3.77.94-.94-8.17-4.53-6.61C899.08,758.4,901.5,762.52,898.74,763.08Z"/><path class="cls-4" d="M129.35,748.46c2.24,1.54,3.2,4.07,2.24,5.79a1.66,1.66,0,0,0,.16-.21c1.17-1.71.23-4.4-2.11-6s-5-1.53-6.26,0C123.22,747.94,127.08,746.9,129.35,748.46Z"/><path class="cls-4" d="M763.26,722.41c2.24,1.54,3.2,4.08,2.24,5.8l.16-.21c1.18-1.71.23-4.41-2.11-6s-5-1.53-6.26,0C757.13,721.89,761,720.85,763.26,722.41Z"/><path class="cls-4" d="M915.24,741.49c2.24,1.54,3.2,4.08,2.24,5.8l.16-.21c1.17-1.71.23-4.41-2.11-6s-5-1.53-6.26,0C909.11,741,913,739.93,915.24,741.49Z"/></g></g></svg>